<mxfile host="65bd71144e">
    <diagram id="riRncMFtQBgk1_Lp_eep" name="Page-1">
        <mxGraphModel dx="430" dy="582" grid="1" gridSize="10" guides="1" tooltips="1" connect="1" arrows="1" fold="1" page="1" pageScale="1" pageWidth="850" pageHeight="1100" math="0" shadow="0">
            <root>
                <mxCell id="0"/>
                <mxCell id="1" parent="0"/>
                <mxCell id="3" value="" style="image;aspect=fixed;html=1;points=[];align=center;fontSize=12;image=img/lib/azure2/databases/Azure_Database_PostgreSQL_Server.svg;" vertex="1" parent="1">
                    <mxGeometry x="530" y="265.7" width="48" height="64" as="geometry"/>
                </mxCell>
                <mxCell id="11" style="edgeStyle=none;html=1;" edge="1" parent="1" source="4" target="3">
                    <mxGeometry relative="1" as="geometry"/>
                </mxCell>
                <mxCell id="23" style="edgeStyle=none;html=1;" edge="1" parent="1" source="4">
                    <mxGeometry relative="1" as="geometry">
                        <mxPoint x="510" y="220" as="targetPoint"/>
                    </mxGeometry>
                </mxCell>
                <mxCell id="4" value="" style="points=[];aspect=fixed;html=1;align=center;shadow=0;dashed=0;fillColor=#FF6A00;strokeColor=none;shape=mxgraph.alibaba_cloud.nodejs_performance_platform;" vertex="1" parent="1">
                    <mxGeometry x="302.69" y="274" width="42" height="47.400000000000006" as="geometry"/>
                </mxCell>
                <mxCell id="5" value="React Frontend" style="shape=image;verticalLabelPosition=bottom;labelBackgroundColor=default;verticalAlign=top;aspect=fixed;imageAspect=0;image=https://upload.wikimedia.org/wikipedia/commons/thumb/a/a7/React-icon.svg/512px-React-icon.svg.png;" vertex="1" parent="1">
                    <mxGeometry x="290" y="140" width="67.37" height="60" as="geometry"/>
                </mxCell>
                <mxCell id="15" value="/web/*" style="edgeStyle=none;html=1;" edge="1" parent="1" target="5">
                    <mxGeometry relative="1" as="geometry">
                        <mxPoint x="188" y="206.80918182672133" as="sourcePoint"/>
                    </mxGeometry>
                </mxCell>
                <mxCell id="16" value="/api/*" style="edgeStyle=none;html=1;" edge="1" parent="1" target="4">
                    <mxGeometry relative="1" as="geometry">
                        <mxPoint x="188" y="226.00157054292686" as="sourcePoint"/>
                    </mxGeometry>
                </mxCell>
                <mxCell id="17" value="Bun (nodeJS) backend" style="text;html=1;align=center;verticalAlign=middle;whiteSpace=wrap;rounded=0;" vertex="1" parent="1">
                    <mxGeometry x="293.69" y="329.7" width="60" height="30" as="geometry"/>
                </mxCell>
                <mxCell id="22" value="" style="shape=image;verticalLabelPosition=bottom;labelBackgroundColor=default;verticalAlign=top;aspect=fixed;imageAspect=0;image=data:image/png,iVBORw0KGgoAAAANSUhEUgAAAoIAAACcCAYAAADrs8rXAAAAAXNSR0IArs4c6QAAAARnQU1BAACxjwv8YQUAAAAJcEhZcwAAEnQAABJ0Ad5mH3gAAIK9SURBVHhe7Z0HYJXV+cafu+/NYq+wE8IeCooi7jpqrVvUqrgRxYXav7bVqq27ahUHrqpVacVd994LRRQVWYEQwt5k3n3v/33O+b6bm5BAGAmEnB+c3PXNc97znufMz5FIJJIwGAwGg8FgMLQ4nNarwWAwGAwGg6GFYYSgwWAwGAwGQwvFCEGDwWAwGAyGFooRggaDwWAwGAwtFCMEDQaDwWAwGFooRggaDAaDwWAwtFCMEDQYDAaDwWBooRghaDAYDAaDwdBCMULQYDAYDAaDoYVihKDBYDAYDAZDC8UIQYPBYDAYDIYWihGCBoPBYDAYDC0UIwQNBoPBYDAYWihGCBoMBoPBYDC0UIwQNBgMBoPBYGihGCFoMBgMBoPB0EIxQtBgMBgMBoOhhWKEoMFgMBgMBkMLxQhBg8FgMBgMhhaKEYIGg8FgMBgMLRQjBA0Gg8FgMBhaKEYIGgwGg8FgMLRQjBA0GAwGg8FgaKEYIWgwGAwGg8HQQjFC0GAwGAwGg6GFYoSgwWAwGAwGQwvFCEGDwWAwGAyGFooRggaDwWAwGAwtFCMEDQaDwWAwGFooRggaDAaDwWAwtFAciUQiab3foTisoyYd+tWm+vuEfmO0qGGr0HaTcDjhpC2JgWkTS9a0tbTv9V/rR9sAbeydan+/o6nnPAnra3UvjYgjyXhz6svgH+s6mur8DSVh+QV9PZZvSLteQ+NgR69tpptQ3w9NlC6036TkeUUte6ANb6/9OuSY6hBy3LqOx983RzJ1PXa5ZtNCyjcrTXTc6ThglNhpVp2v09KQpKWjxo4/vZ39c2294HDUTI9ksuZxav8el38avX91+trXWu0blU+0Tuy0HSSpfa3WPZP6rlMfVKi97y6GdbU7Ht6/HQcGw45mVxEuzYdGy+qNi3EiBqGxzSDdnWyfb2E+Sw8tmer7pwBMicDNsmPijcIwPdSfptXnq63VtmgHdYq77b/2ncEObxFMF9A6IhNWfNWMIOPfDdtCdc1Lv26J1PbQNT2p9+kvLGx7bWxhWfu6+Znvd9b5mxrxAuo1dZ/2BW2J9AgzNBo1WoxTVPvuTeym9hfbmz71pnOtFpYmI2HlTavnYWvYJLKElmq/aemqo0B/TrWgWr9b7bH6o/xRvppf1RNv1S1+tn1snpothpYt8WTW8e0W39RWqe/Vi32ZdZBmn2nHs9ny/rsGjSYE7cyjHYxg1was33f1iDHsmmwuY6nfbGuu9Xu9XcNNQI3rqgteWmNfVnq8SGjq/FefEEwlR/r1CcY/NC11CcGU77ZpUIvODiTVzWZThyDdQaSXW7RJu4tP590t3Hf6ddYu5+w3KUNvmVTfvp2AafGh4ljiUL1agVGqotV6k7JFCi4JNbp+5bdgyHpvUUP4CYEM603acYgjpl/VZx7X+t6lP6rLtYP6na9y+NTpax2vmbLDhKBqfnU6EZdUdMghUy0vjDG+tSOYHyVRqej5E1/j8ntqe4OhDmxHUrsgoAPX9sYflHHp4OQP/Er+WCZu76tsL+UoGj8j62uXP/apeD28vqbEvl1VaMm5XS4VTbw4xkXtMTU7HCvy6cMZ0+qcKr3i+jf7+lQy8IMu9O20sq+P75vkeg1iGrQVSZBYVF7kVTXTSKhhv7ZRE5V4Ow7ahjqvnMPFY8s5WY7IC21AY59/+85dLQStVlB1n/LKwsn+XC+yIe3RdjC8Xm7vsr6T99XXu3uT7qfT86jKtxLJTE75oONL+WUJjC8GDuMLR4CQvNlQBpRXAZEgsHqFfo3FEF5Xjg1ryyWdXHqXSBSxeBQrVixFRWWZmIl8L8d31vAPTuT17CMuzw2X1wW3W7c4ZmRnILtzDuCVi3L5gQ658j4byMwE2mcBPtko06dtjxduB3X9POzuk647TAgqA1ApYyVsWJT26nVARQXK1q6BPyMT3nbtgTatgWyJaCpuRrCE6oG2BkPd1HAwfK9qkPKB9hYVWyuvVM4jXrYeVRXlyO7QRdtZm1aSuT2AW4Kq7ss+brE5KwPr46YNRG8EHHG51lVrsHLOHGSKo+I5kyzkFHbXk2zTiDidblVJq4jH0HnwQKBjRxFlcs9yMYyLxhZW6vhMK7tgjcr9U2Cs3SA+ohwb16xGljhgd5s2QGtxzjmSbvQPbu7MoIWhoelgnSFZUoI1CxchILbilLRjOiYSUXm18ovdGtZIrYU8X1zOHZQ8npWbi4wBfZGkwNrBbCIExehCJctRUbgA2Q4XYkm75WhLOBGTuKlMRpE7YACQ27nF2K3K4yIntD8Re0hV8sRG6O6Uy+N7ieCIfCgrBTauQ+W6dShbsw4blq3ChuUrUbpsBUoXL8Pa4hJ4EhLvsZCkRkz5SVfSB7fDJ7Gsm+zEmyobbC0+w0cfXydOrKEWERJO8fVyjUzvpDOGaLJCLisuVyWORsRgEn7EfD4U7DMMiSwfcvvmwd+2FTr16AF/q1bwd5RyJUtEYivxUQ65B5W2cmEe2V/lBeYD+Sx+nrdebVf6dVdlhwhBlXFs8bdSIvzLb/HzR9Pw9QcfyQmqEI+G4UyIIwlkomDPPZE/cjh6HHYAMLhAZDkVtyQqE8aKNINhU+xMJqainIrYWkjCtzOx9JPPMeu7H7Fo9hy4YpVIxOJwubPhysjAXgfvg8GHHQLnfvsCnaUi4hU7c9OJ0G7ZKt34OdShrvMH3Hr6mciWfOIRAaSEoCppLSFoF6iNgZzD4fAg6vKgVETwdVOfBSQPQmrHyk83gRBMyvGdFH8hOc+y1Qh/8RXmfv0Nvvv4CySClZKclXBIjT3pCqBg0GCMOHR/tD1wNDCkLxAQB+9xpqQyex52l5r4LoPlfBNijHah5QhHEXn7Q9w14XK0Y96LhLmFFQRls6lUsV63Ffs4hPYqedMqRRMeH8pFjJ101ZXoc9mFSPj07zuS9AJbtYTGHVj69nt4ZtylyBVbC8fDqv5SL1Ze5rXHvT6sl+P99b/PAKP2QlJsl8Jgd0ZXbm0/IoH5kxV0youqCLBiFbB0JbBkCVYsWoplRSUonD0bpSuXidCLKEHnEoHncftF1LVBZqYfHo9LvnOqFjzm/qRUqG2bSCWYhSMhYi4m5+P7WrbBFSZc4v+IQxKYuyr7kjTjZ77nd3IIdfyonKe8qhzRaBSlGzZKJSCKmDMsJiG+2puD/oOHoc+gAWiX2wGBnrlA7x5Apw5AOxGHqvLK9Obx1Skttjd/NC7bLQRVOWoVyuUffoLX73kApb8WoauvNfI6dpb4iMLtSighKHIQa4MhLFi3Ghs9cRx57lgMOflYoG8fiUBR1Ko5XRJj984zhq1EazU6Z3mJMsj7BQsx7T9TMe2Z59A+6UYvqam1CgSkBhkRnyvOOOpBSETXkvXLsThYBm+/fFx4841wjNpTBBBtTUQH7a0phCAd4Tc/4N9nnIt9CvoiWVUpjonnrS787MK3MaAjdMCDRCADXxfOxXkv/AfYezDg9zSJENQFq/gIiYb4+9/gviuvRVZ5GTp6M9C7Q2d4Rdi5nJKwbHlJuLE+WIWFq5ajTAr8EWOOxagTj4Fz2FDAR0EozkGV1iIGd23f2ryoJQRpE86gJNg7H+LJiy7F/v2HwBkWIaiKC8tuG00IyqHFFlgoq/LeG8D38wpx0l//BN+4M5DMSGv5sUvb7czH6jyCMi1V0Uyg6uPP8OLYC3BEfgGCIlakFNMb1caqxOnfRbIE/Phq7i84n0Jw/73Ebn1ymbufsaoot1v7VA+H3GNMPgfFTlavQtXiEiz+dT5WzZ6PuZ99jvi6jQjIPn6XD20zW6ND61YIuCgAtc3FpeBnXTEsMRlBTGzRoe3A8k8cAmT3pNDHE7tCmJ78dfkzOYN+Y6VVCsuJUBByP7YWuumPZDO3eE2vHIe6Luni8AgXIlEnSitDWLpmFSLOOMJS3oQzfOi29wjkSehS0AMdevUEevXSLYc8H9OeB+E102/VvLRdgq0QgjoCud4OkaiWyOYbSZhQGFVTXsDj192IwT37I9uTgaQIQ4cYBROOap4JxcSIS+3I4fGqSPm1qBCVcoyzr7wCOb89UiKvK5ApXzCf83RyAkkalajs1iJ6jSI5ojo3awoNvHzDLkH6AHSdIXRa2mtP8TMRixEHIdswU/M3mmlIXmcVYdXr7+N/jz+JgHzXr6C36rKKiQ3SmdDWFGKntBmXxw2nFByloSrMWFKEcXffgtbHHQ0ExDmzy7gJUELw65l47LQzMbzvQEQrK/W1psVF42LFcWYGvp8/Fxe//F9gn6FIsqVNqMtxbi1ML4Xl1NXx5PbY4uqIiY8Qcbfi2amY+re7MaJHHjI8PsRDVIY6bVWqS5pRtDJW3Jledc1zRfCzO/ugY4/G4JOPB0YMAtpkywbyo5vjgcTPSGGR8q7pJUIa6QV9OvV9b6DdSoH+7rt4/IJLMKL/HohW6DxWTWPbr7ZbT4Yfv8ybhzF/vRYZ48ciKbaxo0m3A61vk9j4/gd4aez5OLR3ATaGkog7OE6hLux40Nfrkuv7fv5PuOj5Z4H99hHhak9U2HXhOn811viTfMR7sdObPiK9JV5nM/mjunmlkrd6NTBvEcpmzcX86TMx4/PP4BSf7HH6kSX336VTB3hdHuUlOK6Poo5x7LCEnZ1t6Ql4Xr3uoHU96djXmBJ01XG/WTbZz8L+nshv+tZ1XChb4HWp7/X1UOzz+tweD1xet3oficWUOFy5ZiVi8XKIVkTB8FEYtPdeyO2fDwwoAPK6izDkkDjZgQ1dcnxb26g4lRPLL/JiRYTNFvzajmKbhaBqvWMaxqIofet9/Hv8BBwmtcbyclHy3DQ9giWxVV++oIyLNy8FgI+CUI7z06JF2JgVwJiJl6LrCUcAndvpCOM5xPj43jbAdNIN1dA80PZcnRlZU9bpqDOajcoWdDJRBqmNrV6Lwtfewpt3P4T24pT36CUZLBpDhSOq8krtfEIb46Bh9V6O7fVIZSLgxudF83DVM08CB41CwuNqkm7GaiF4Fob1EyFYEVR32sh5uwaMI5cUqD/Mn42LXxIhuG/jCkGeUDWC0L2wi+i993GXCIrD+w1DdEM5YlKo2j6O6e5IpPkLIenUlccMOa7XK0KgaCHWIIruh+6LA/5wMtrsOxJo11puytqPXW/ytr6uftoYqe0v6vveQLsVIfiOCMFxl2DP/sMRqZQCvInjiTbiCfgxa/6vOPX6pheCL551Ln7Tqx/Whx2IOrZ8XpXPMt34cd6PlhAcJULQb/2662ILLzvvpie0esug+051uc9t1mxA+a+/onj69yie9i2Kv5+JjJgLuTmt0b1tG3ilghaN665WtvLZcVwXdv7T21SXD7Y4rW9fuzLNCuRmsfWIus80rO/5l3GgfRJ9jxUXFrXPz7LFQX2iP8ALN/xSOfU4I+oYqysiKFm7DpXxKoSz/NjrhGPRZ/9R6Dh0CNClq24hZGWWopAaRx2K3clp4rAJsWJnyzBiUiLQRpQ9lqzGy7fejT16D0RZaUiJQAdln5WjpDjepJCJyUYOceBsbg9FIxiYn4+Rnbri7dvuwutjL0Ds+Vf1WEO2JEiEUDQqJIY5rsu2UZ6CCbQ5AzPsGjDNqn0L7cgOOh3t9zqN+SqBY+uKliH61Ct46ohT8cUdD2Nk997om9dbbCeEyqRkOkn81LiRNGwRSOJihRERlMlgDHt26IZXbr9HTVLgGWlb1ddl2F5s50m/rPIts+66jXhZBPyo3DwESytVFxDT22X9SxeBrHPTb9gVx5BUIsvCQfTo2QMj+/aD+9cFeO6iK/DB+ROAF94CFq4EqmTDmJzYSnPbJzTEL/B67Ws2GFou1XlQOUSqmXRfTDgGb42Uy59Pw+p7HsUrp5yLZ8+4ED88+CQCy9ZjZP5g7CkV3fZt2qMiEkep6INKEY9bEoEanp9Ow3q1Qu18vGl+tbfdAhSAaSKQLXy8Rft7LYRt9PHsc9d17ew+ZtwwuOR9XCqulRI/ZZEEysMJ+P0ZKOjVC3sOGIrhub1QNPU1vDLuKjx2yBjM/+MtwNQ3gTnFujWVApv+Tk4rMV4d301IA2KwbnRzpoRp3yNUtBQZDp981k3n/K22ouVnFaHs95egFDWVr3wXCwXhrqrCyN75aCti8tGrr8Pz4y/BhjfeUTNBHRJZjqgU2GxdqHHc9MQz7MqoTKfgm9QHhZ2hOLvWwdY/jk1avQGlb72HR08+HU/fcDMGZ7XF3t16wR2KqslHMakJcowfbUg5qzqw7ZDbsJs4IWKwiz8Hy3+Zh9Jf5qqarep2rlVRMWw9dQkqNXNQKn3rvp+JlbMK0d6ToYQfa+/KH1h52WnXrAXb6dq/qXST79T4oKowOrn9OCSvP7xSAX104p8w6egxWPns80DxcognVhNzXOKMXXLe9K73uq7PYDBo0vOH8sWS39SQDlbGK8QfL1yKVc+9inevuAaTxp6Hdyc9jK7BBA7LH4ARuT3QOulBojKEaFUIsbjkWqdLzZ628++WoBBrytJcN2xZH9Kwy6Itkd7QwPdx8Te8V/Z0qN4O+jcRhpHKIFzBKIZ26iZ+ayBGdeiOn196E09c+Wc8cNzJmHnnA4hP+1EvlyNlG8IS50rrWAdXsdL4MbMVQpCpqYUbg4osicxlc4qQ5fQzJVPfq1ZAqeWrmr7ViqgG5vPVikD7OAr5Le5yoJKCUBz9yIJBaL1sHf570VWYcfm1wPtfiJMPSqkgESUnSO0nl0/jVQLRsMuj05zpRxEgHyjklB2pX3UL8PqNwDvv49MLL8N/J0xE34wsDOtbgFgihioRgBzJoGxLxJtyXrS1ekp4JRJtkWfZXyyURCYCWDJbhCBFJ22airAFwLyXLroaFeZJtiCID1s2pxDZrkwkQlbrLa9BAk2AzlM9B9SqmddGjf8TmO5J2SGRdKGsKgaviMoRBQMxvHV7vHnD7Xjs0ONRMXkKMLMQYijKlvR4VB1sO0jZg6HZocqO5pR+zeh69WUyn/Ca+VbyJCvkP87Hqn88jEcP/D3e+ONNiP9ajH2lfO7XM0/lpQ2hCIIxKb/tQlnyaT3uuE44hCe15p/k/7p8cfo2dB/pwjL9sy5f6g7qd0t7pGMfO3UN1CsSUt9Zn7cUUmWN9VkJRcaFOqgTEfmtLBpBVTKM7j26YMiA/tizUw/8NPlpPH7iOfh2wv8B/3sbask9ToYkkgZ1XXNd320v+jobgF2Ap+BNR6IoKVqEtlmtxVHLxTMSalOHc68LlVgsHCTyEsGwmgl6UJ/+WPXVDDxw3kX4+I/XA9N/AsrDUusXJ0/VLI5e2S2vxbBLY2dYO9Mq8cbuPHYfctKApCtn1n7+l5sw6aKJSM5fhAN694VfxFqUsxXFjuqzpIY6Hj0A2AmXbF+6cpVcDI9YLRIM2w5jMD0WlbPislDiIypWr4fLqhjaY36q0WmwJey99GQSJ7isG/1EIBTDvr0LMKJdJ7xyxz9x7/GnYs5dD0oBNk8qj1Hdm8AKBlubeYUNtBWDoaWginUpdzm5E1WSVzYEERdf/NUNt+KBk8/A+5OfxD7tu2L/nv3Q0ZuJuPjquPhltoIxL7Llz/brKZjPrby+Of9st6apyRjWhhwWwrdu+cotZbwzERWfnVDv3eJDPFIZdEoF0e3yqOByutWrx1l/cLt8qvLIbb38To7hiYs/iotYE8HlEofiEefgleBW8SHidlNNWi+83rru05ZMXHomJtGhu6ATquXUK75rr669cWD3fKz99gc8cMlVeH7cpVj23ItA8VI4glE4JU0cUk7Sd9liszHKq9peueHwWhIxxESQuTh7r1as8cB02bxpBluZK+G2maAKfDEOcd+olJp9O3Hw+/UbghVvf46Hjz8LS/92DzBjll6zUB16K1LLsNOwM4rurmOhLB9YmldWiACchtnXXI/JJ5+FVZ9Ox/59hyErkIMqjkG1nImyHyf3rabmuI7NY49vVTYmuNXalXLQJpgs0jJgHKbFo93ySLEthYx8IUEPHUnvKUjl+zSqbcX6QlBdR1agj2BFIiH+R43NiVSp5SYGFxRg/1798O0jz+Cho0/D4pv+CXzypah+sTEWcjxeWlrXrpwYDC0T5lEJYQnTZuGXq/6GR04Yi4XP/Q979+iNfvl5apxfeSSCqAgnlWftPGzlx3RURY0LN1v+enN+mq1uHGNHWJRz6Ijb4YZfhF6Wy40crxNtvC71ys+ZIuB8STfikQSWrViFxUtWYEnJCixetAIlRXUH/sZQtGgZlixbjfXrS5UIzBBBmCV+isdv7XGilduBTDlHhssr4pFPINHrrKqWAwn2Pan7su5bV0u1IGbQd6JRZZZ8w5DqSpY4S4jDkWqxmisRjEclXkNo17Y99uk3GG2Xr8Gbf7oJzx53mlqJBcvXioqUfSm6KZjlOI0hBBs8a1gnJmv0+rOqXa8rw5cXX4eyGT+jTU62Hngv0UF0zd9y3IK9jlJdTp/QGdMo2E2kblb25w0zElkbYKJxhuCs4gVYLZL9t5dfiH4nnwjkdgJ8Uqjb07IZ8Ts+ngzbiUp3mgIdDlsB2RpYVIxfX3wR7/3rKeRG3Rjcqw8i8n2UlQrJoIlkXIJYmi0qBOWAxKaYxrrrT9tkQwpz1iaz4MOMFcXoe+EYjPzrVYDfWk9QjtNY7Cqzhp0BH35aOBfjuY7gDp41bN+Lnfd4TCc/lFVi2t/vxcKn38DwLt1RkQxLzVinH9H+QqcjSRd/pL50TW0nb+hk6V94DUxjrkbAHmXlK1whjDjudxh5yhh4h+8h6e0DPHJQFj6sBMhb5XuaMC2aC45gEHibs4Yv2yVmDZ9y3TXIvPjsmusI7iBsO6MdqCJLikV71vAhvfthQ0gK7q2dNTyV6wiOlnwmNreLof0x/TCDVMgXLcEvr7yFTx9+Fh1EZA3N66kW5i+PxywfrAWgTfVsXkZWNYw/WwgSvQ/f6+3ZyqcjWOJK/K7DyTVdJe/6nOpSuI5gWWkl1m1cK5cXk+pdUIoKuQbZ3+PKhMsVUI1EvQf1RYfcXCUinWzxY362rqkulIClvkiEEK6sxK/Tf0AiIvI2GUJMKpJqyRi5HhcCPBOyW7dC6xwpLUSAUhTywpJSLtnL3lD2EV5X+qt9BYwX5ePsa5KyTPlY+Uzf6LJWO2AZ55RI4hAZtoS6JU0Cfj8qYkF8X7IQHffdG0eefy6yDzlA+y4RrXKgzd3qNrHNC0orIbi+El+M/z+U//CrFoKScI3lKJgAXOqDaxAm3U7MXrAIYY8LZ115GQJHHQLkdwECEjsSSZSj9rIgjHylpC0xsanD1wlanYSGuqjhKCUoIxeqv68Zj/Y2KYHBXM5NOH5rQQlWv/4OXn30KXglbYbk95HaaERqhAz6mNsrTDZBcg6b/JUQXF6CvuNP0kLQJ/bESkQjYgvBR/9wFvYsGKgGEDOWGiuv1AXToimFIHGwJlsZwjc33IWiZ9/C8M49USGOPeqSHGrfe62CZHtJz99OrwcJcZwLlpVgfVU5Rh91OIb/7nD1tAf1JAAvl6/SIlLZsVw8TYHxYdt1CuvGxKuo19T90g+SpkzMxsBOuLT7qBaCXD5mr50qBGfP00IwMKGmEEz3SzuK5igEuZqGpjoi1Fep72Ub/qHjscSMEoCr1qL0jffw7G33IVNc84C8PNVdmgyFuLWKX/sQKu3Fj6pD2PnWUiTchiUvxQzzD8cMKp/C7aTs5Xdu+S5D8ppHMhkbfNjjs3TNOtUiFkwEEfd5EPO3xqBRoxDIbYMOvXvAnZOB9l07w+nzI6O15NmMLDmZHDMrQ/luikgVeK7NqSPeg7pvuUmqzfIKKw7CCK9ZI6IwiI2r1qCitAylK9dgQ/EyrJ43H6Uli+EKheFPeuF3uNEjtwtaiVBjd3Jc4i8ox5Vcoc8huOlLpEyjsFP3LeWevfg1oYQkKf/BKFIFoxWf1u/ssHKLf15TWYb5y5bioN8fi6HnnqXXURXRzEfapfsolRxyUH1citDNxEUdNBshaKNbCMUO3D5lbD8VF2JDlhun/O1adD7qUKBtK4lLiUV6dGUk1UJwRzqLlka6w2Ua04AJv68rXpUToBBg6x9/5+uKNVj//md49tZ/oF2V1Dp75alW5HBUBKBYMo+1wwWgDYUgWwQdFILFO1UIxkQINnY+qQ3TqyUIwdqwl8EjjtgrlceSVcuwqHIDuowYhkPOPQdtRu8LtLPWLOW6XlaBxaWt+GqjbF9uTNl57YSzb7ipE3RHU8d9GCG4+whBpQv4k3Vv6nGBP87CW/+chMWffYtRPfvDQ32U0Ovg1Wvm4kN5qBotgeJb1T4UIJJvKAZtQchGG4oWvobknItLShCORxF1xJHbqxf6DNkTPQvykd27C5CbK+V3R6C95EmmMQUPRRRPyBtgeW7Dt7xGOW9D/ZfaTu1gfUH4nsKS+Z2tEKrMku/YYLF+g4R1wPKVCC1ejiULFqNo7q9YyEeZRiLI9PjQqVMnZGdmqaeQJEIRJRAJxSF9T6pLOJ00wWrHG+2XtpyKZ/nsRExcUxL+jABmzS9WPaEn3nANup10LNBKhDBbB1WLqr4F7qTTbeuF4NZtvSugBEMClXGpRSTDGNCvAHt26YbX/nIL3jhzPJIvvq4e8K9UPyOWAkSwHYVeh9CKbUODYfzZcZgefdXxql9TqGiXDel0pNYXfGYqnj/pdLx0/U3YW9KL404qwiGExCmoZnQphBtNBBpaHKlxR+KIw7E4KoNhNd54r75DkLWmAs9d9ke8d9ZFCD4qonjuEr1MhtTebRGgJ6JpwZpu+5vYOb/Y5EuDoWmxJ3NS6qhgu1LbPumHKXI47nr1Wqyf/CQePP40JMX2R/YdhEgsiqoEn4GuhRyxbb4GVvlbA/lMwWILMu7vl/yX6fEgHI5iTlERviv8BUu9EfQ7+yT87r5bcfEbU3H8y09j8L03Invi+cDxvwX4+M/+3UUIZgLZInD4OEnVoGPfDy+I55Hzy/0k5FWJzQYEXjGvTT6ljqNuU8WPvOErF3j2yzlZQW4jQqt3V2D4QODog+GfMBYFd/4ZR/7nYUx453mc+Ng/MeiisQh274Bvi+ZhZuEcrFi9QnZ3IcPllldWVth/oEMNGH8SUmMNLRjfdnIpESn7sSOtvDKCvLw8jMwvwBs33I6PJ0wEZswUsRqSeIirhi61k8B40iKQx7V9WPU56qPZCUE1q1gSNi5XzublaDgItxjb6J75yFldiskT/4RXx1+G6GffABsr1axBNfNGIkvHFf/oSFPomLM+GOrDNtDNobahTXL6OwvWNRtQ8d7HeO3yq/Hv6/6GXkkX9u3VBx4plGN8HiVba1WGMPFv2LFwJiKdKQsB5VTFxDjmKS5OtVXchQPz+okgLMPUv9+J+485CcVPTFFrpamWgJBUIumBLVeRbvfGVRiaGyz71NJcQREOcwvxxpV/wiu334uDew9AF08mouUcK2eNUxMBZ7di2a2tm0NXkuT4Ikg8Hqd6NGSpK67GYX9WUohgbjsccek4XPbMv3DGM09gnxuuRddTj4Nj7z2AHrkiuDKRDDhVt3DS50bCI3lVNFRSBBVbEZNsnbd69lTes14Z7OFffN0SDtmO2xJ7f4pCviYkg/N87I+VO1E9RAnOa/PL8fk89oAPCQrEbLkwuR/s0R8dTvgd9rz2Chz7yCRc8fwzGPv3v6Ln4Qfh8+WL8NXiQizYsBrI8MHt9YvOdFnxZMWVJdJ0qBv6L9latpA4kYvkLG2u0zi6Tz8EZxXi7jFnYOOLr4hKDMLJFVTimxN8W46fZiMEbWVNp85Aw1M3rppiE6gKh+B1e1TtJrBsAx49cxxmiMHj8y+BCs4aFGHCiJfUYOKzdqCCfMtg2Dx25kkvFFXhyu+ZyRiJDCxAK4KACMAvpebyzPkT4J1XjL0lXeD0IiiiXZt4zWMZDDsaFmjM47pgo8VxQklCfa6SiorT6cbggr7Yq1N3fHzTvXj04OOx7JZJwPRZWgyyBcX2kGKsrGjT1nlM6yt1vIbUuA2GJkEbpXLWqgWMts/WQK7D++GnuPd3J8I5cz6G9xmk8kCE5Wdaq5QtAmtjH5bLtrBrU5UHsq1q/fP4ke0PoHhJMb4vnIX1rd0YeeUFuPDVZ3DEMw+hyzWXAIeMBrp3EXHkBdxyDHYZp65ThJI1js4ul+sjPf/Z79U9bgfVx9PXQmofV33mZvyO29MZ8Fn1ndoC+w6D7/xTscd9N2PCB6/imHtvRu4h++DbojmYV7RAdRszftyiYNRi+qrFjr5IT3Crax1k+5oofHlN9tOzVM9GZo5aWm3KtX/HLzfdAyzdIOWuHIOTWdTlWfsKPJe67i2gY79ZUvPSVVRKZCW45Ax86ukDJR9+iUljL8TM2+4Gfppr1fYjcLB5nLbPnSSSjB/fOmhshDUcl1gZBxc7uPRAWQT47idM+9uduE8EYHDWfNXy0lEEYFxqM3HZTj8TksGeZ2UwNB12zZzji+n4+VQjtlDv1ysf+3Xqgc+f/C/uPflMfH/bP4HvfxabDilRyLW86GjFdVtHsjFWbNj1UG5WbJa+mQtDr5gyFfdedBn2756ProEM/QSQrSz4lDAS0ULhwmVevL4AooEAZpQU46OiuRh64jG4+OFJGPP4ZAy4fDxco4YDuW1E/Im4YsuanxM9RQ6xlc8SRBQpmxMq6a2SdrnTGGx5yJiOK329ErmMXy4v45P7Cch9+eWLNpnA0L7ofMqxGH3HTbh86tM48lLRH6Vr8NWCeahwO+D2+7SoTMZVd/rmHoaxyeVYYwu53qOzPIT9CwZixvP/w4vjLgPm83F18iOHxKWOKdvrC7Y+148+cjNAKV3eHyPDrpGkjIm3oVsLufIIp4qXV4bRtV0uRucPwY9Pv6bWFVtyy73AzyII2S3JDRlhrFXo5c0MmyEV/xY0ZpVxovJlSML0OSi89jZMPu5MzH/uVezfbwhyMlujPBhVj9xRSxBY+9stiZuMNTEYGgm9mLj1QVCVGNWlpBd65fOMOUYqv3cvjMorwOwnpuLhY8/AvKtvAt77DNhQIY5W7FX8hd1SIJ4j5YcMhp2KNsRqP82yjb1gazag6L6H8fLNd+OAPoPFXycQUeabSI2jtXZVwcauMFXnmYTy+c6EEwFvABkenxr7N335IoyecC4ue+0/6HfnDcAxvwV6dBHh51Xj+5hV7HzSEFgmVAfr/NbOdR3DLksaQnW5Y31RA3UifZK0E+n4rC6ndEOGvRn30aiWPtWqJN9xNYK2OcC+e6LjtRdh3Icv49jbr8PCZAQzC+cpAZhNQZiIi5QRf6KGSFVfV61LkKNK3FuBqHM5PQhWRDC4Vx68S1fikaNPQfKL73WPnBzfXje3/vutyW7lwdiszfV5lOJ2uNSzZVEewR5de+GAHn3w2ePP4J/HnILl8ooFS0QQRrWClmA0SQOh7XMCTljeVEj8zStB4UNP4cExZ+HHF/+Hg6UQ3bNLT8TLg+AwBxaSErt6X8IC2Wp+NxiaHsuRi6/Q43C00+UjLln4xMIROKtCaobzQT0K8NMrb+DBcZfgg6uvQ+jTL1XByhX/HSIKWZs3fsOwK6EEBIULy7X1G/HNLXfg7Qcfw6g+AxDbWCnaMC5aQU+y4Bp2fE3vSqwLLQidSjg6W2Xgx+VF+HzJQhxx6fm4/JWp6PfHCcDIPYBWAYAtZFyJgYfk6h3W+O9NBImldhoqVLaXbT9Hega3xFV6eZYGz6Eqhez69rr1uEK2hvbshE5njsF5zz+NsTf/FfPCVfhmUSFiGX54GFcUjxYq3iyqReimTkb3aCTVmrRdM7MxrHVH3H/GucBX0wCuUpHgULhq6rtmm+YjBOlx04KOpOpgj22gcdvbJF0cABtXM6KC0QgG5PXBfr0G4J07JuOxw05A5aP/BYpX6KeUyP4qU0gE859tqPbxq2Gi8Pz6GhTpqdfMSd2vdU/aSHnP/GD9YTfwwuXY8NAzmCzx+NVdD2Bkj57o3bMHKqQgrZSaqMp4LCjt49lIuqg0MhiaELuFQQfWqCVvWwVgun2y1s1B88EEV/yPoHeP3tg3vz/Kv/gGT44dhw/OvhDRqa8Cy1ZLPpCKkGoZ537Wa61C1W7dsKn9eZP8YTDUQX12YgsczoulBlH2x+5gqbBM+9s/8NPL72K/giEIV4TE5lkBZ0OJK+09M0S6n9blG/OAOrZsx/FpmS6/Eh9fF/6MgScfgUte/zc6XXMxMDQfCLj1jFs5Xqoo5H4sK4gcuGbromCdsPb3uuXeDtaX+sLqZJPj1oO9XX3b87rVtVvXZZPe40jU/vZ9pZF+XJaZSktI3KpjcvyjV0LPzvCfdyrGvjkVJ/79eny7rARzFy1CTsAvxaLeWZ3aSg9N9blro9JOfElU9A2flDUyvx8eOPMc4NPPgIgeL8hJ1zZ1iUF+x1D3GXYjbOfPVqmYCD5XRRh79+yDvTt0w9Rb7sSTZ56PsjffVQtrOikImYk461X+q/RnYioxVA8py9+9UE5FGYj8pW5jDTMkBd/ytVj54ut4+ozz8Oo/7sP+XXti72694KgMIsbnTzL7W7VAg6G5op8LKq9xzjSuQn5OOxzYqy88JavwyNV/xpRzxmHtC68DRVKR5PNZQ+Iw2C0TEycu/6rZvItNFUAGw3agZs5yuBNnB4ci+Pm+hzHzlbdVJSZaWpGubRqAJRAFVtq92RmYsXQxfipfi8sm/xMjb/4LMHwQF/MFn+qV9LBilSYCDTUQTataSlUIiADv3hntzxyDia8+j33PPBmfLZyrFsh2e3xKa9ii0haWDYGdG1zbcL8effDAeROQ/O4nNbaZ9mCLwc0db/NeajfCzggUKqFoRK1fN6xvP+THHZhy6dV47/yLEX/tTWDjBtlKnDkLAolHrlVk92SqGpKKMjvsfrAYU4HdvwzyX40DXLMR0Zdew3+PPR2v/fF69HC4MaRPHwQjYVTZLYAGw26GXnrGKToviTKpCPl9Wdin7yDklkXx6h9vxMP7/w4b730SmMOhJpJP6GckKH8jJaN26NW+wm7tMBi2hvoqDHbhrhor2KpUWYlVT03B18++gJH5fVFVWsmt9EYNQLeA8VAOeNweeDwOTJv/M4ZddAouev9l4He/AbKzRHWwpVB2MJX+hmGlExuW1CPXKQiH9UGfv/8J5z12H74tWYwVa9chI5Cp0pHpqcpU+ooG+Iu4bM8W21jchQGd8/HcxBuBecuk7FaJmRKD9EvplQK2burQUpDIZPcxazoUg4QzpzIiceyf1w/uJasw+fI/4pO//A3RL74BysNwhqNw2pNKhDoVde2YbeYoGSj3y3WJEIkBG8oQ/vhzvH/VtXjkqr+gd8Kjpq5nRhNIhENKJ+oWV228RC3vYzA0c5QIpEOWvMDnmzpcbrFx8R9VUeRI5Wi/HnlqpvHrdz+EScecjMWT/w3MnAOUVamZmo5o1Frfq34XwbxjKlGG7UHZF5uExF+H3/4IU26+AyP79FfjtF1iw1x7t6EoO5Wy0u0PYFUkhO+WL8aESXdij2uuBHrl6jGAHnYti3QQEbjZ3jJDNXY8qVfJ8F5Rgx6Jw2wfAr89DFe8OhU5ew7AD4sL4WmTJT6BTxuRNE0bRrI5OAElHmNwINsdgGv5enxw/d+B9aW6HGdPxWbUXssRglaE1nS6ImYkCiqDUWR6srBv3mCsee8LPDbmXMyaeB3w5fe6OzQukWglpN1k3tyxM7D9mooXfqQBci3AL6fhywlX4omzL0To5/kYWTBEieHyUFgJPzUuU+KVRst4qe5O0Mc0GJozth1zjbPUWl5WoZpwulAZjiCciGBgn97qaTkf3vUAHvztyVj41zuA72ZIHqrUXXXMVMwqDNY/G6cck8Fg2BpqCDC+51TgWYV4+KrrcUifIQiXVSifzlKvoUN1uCagQ4o7v9+PhSuWozTbjwkvPwec+Hv9tA0ex1rvrxqeoWFixSBpIWWlClLG6hZeSTc+Sm+PPBz8yJ044OKx+Hz+TPizvaJMYhLl8jufqbsF6KuYNBzxlwhH0b9nTxR/Nx2/TH5IKqVSMU3qp8Yo8S7nVb4o7bAtRwja1GpmtX0w5y8kKiLo17oDDurdD7NefxuT/nAOfvnHg8Av80X9xOHgMilp6/TohGyeGcEWbirIjbg4C5JPA+Fai9/+gJ9vuQuTzrwAZd/PwkF5A9HFmy2/BZXBmXLL0OJgRZLBgk6VM41ZIYpGQmotwr179MTBvfriu/+8iEljxuKHv9+J5Dff6Vp5OGzVzKv9h8GwrdiVbgXtac1avPz3W9G3TQc4KsOqwr41fpoikMuu+XKy8cOiInQbvTdOf+pRYM9Bemwb18yTc+oyLx2Wpy1PRmwtjLdN447fOfUTVHzyY4dsFFx5EcbfcRO+KJwNR04A0URUtwxuAW5jb8fnkYQrKzC8T1989OjTSL7/qW4R5O/1uJ4WlIJWZKY58xq3z9qOBI4FqgiF0UsU9ei+A/HTI1Pw6JGnY8UdDwOzS1TNy05PVeOShGRobtCR8BmFyqGwW4EDS+csxrLb78P9x5yBH595DaN7DUWHVh3UmoxcfDTVQsJ9Gjh2wWDYHahdg9Yzf7Uv0YVuAsFYBMFQCP169sEBfYZi1nNv4MGTz8aXF18JvPsRsI5PAJB8JtmGx1IFde0DGwx1oMsa60MaynQiUayZ+jw2fvsdOmbnIELfbm1LUcCwOWi/DtkhkJmFmUUL0OewA3DgP24EenUWASjGyi5MoY7T13tdhtrY/oJxqTVDum7Q6/5JCPiQccqJuOjeO/DZwtnwtgrAEY80QAzq/e3ha1yfMF4VwuhuA/HAlX8HFq/UCcW0tgR9ujCtvpIWQf2RGRcHzdq9GusmglA9l7S8EsO79sbo3F74YPITuP+4U7D0mReAomVqrR5XKAZXLAEXhVQzQpVh6hnMYgmVMWD+Yix65Cnce+wYfPLoUzgkv79aexFVYdVSyvjQXRH6Pk3Xr6HlQduvzufMD6wQsSWF7+0CkSHK2fPlYQzr0huH9hmA8h9+xaQLL8cHV/8JpW+/L06ZM43FfwRj6ikBzI9GCxq2Fod+egLi38/Ef/9xH/bO76efGJIqj6rtdXNQKjp9fvxStAh5h+6Pg28REdi5LRI++ZHLnmyO+pq6DDWwfUN9qPJVPV/Zo8YP+o49GhPuuQNfzftVrd1I0bg1k8yoY+hbAnEnWoUTmPbUs6o8V40+dfRItCAhqBXzpujvuVimqpyrKcJ8rxV7ZTSMyngI/Qt6Y8+OnfH+X27HIwcfj/AzLwEr19Hry/ZsJdQZorrJnpkwLSPWl2F2UEbaxNCsY+oGB6vlT0jNBuZlL16Fin89hwcPPQ4f/eMh7NulJ/r3KlDPMwzFOQ5Q/yN6/7T4U6VX2v0ZDLs1Nf0H/YR6GLxVcbSx8yFbCLkyQUVlBK0y22BUwVAEZxbiv+OuwgsnnYXosy8CxUsBDsdgfkz5C+ZVOmr9PpWva/kJna+tD4aWQ7odcKmzslJ8/tTT6JDZGpGottHqyXoswyz7SVHdhUhY3Ln8XhStWI7+B++Hg26/AejWVq0LqJakEShS+BSN9Cdp2NizTg2bp/ZqAWy5s1vvFKI1VPsKfYlHxGDAh8Axv8dFd92GLwvnwpuVhaS4CnWcVPoKPKbSKjqd7cDymj6oIhrEoII8fPvUM8BX3+mhbXIe9VQwCfb21VdmqBN7PbG4CEKvWqcnD3u37YSn//p3vHnJRJSxhr9aBKGobQcf6bMTxwClGxaNSok3Bl6PXJd6RmFErm/Veqx96TU8e+44TP3bbXotwO694GZtMiT34bINq9phGAyGhmM7WFYmWamMlVehszcDB+X1Q49wEk/86QY8d84ELH7qv8DcRZDaJhxSYXewcFeT03gUFh4187XBQFTDA23li2n4+c130adrD8S5jmUDoF1qdLdxKBnBKmcM+/z5SvVs4LhbjitCkEdL7wkyNA1qTUaPG8jwI3D80Tj2sgn4acFC1XXP1l77iUhbhD2bkpaxUCUGtm6Hr/71FFBaJskp+yuBUO1YjBBsKHHmHifKY3rG7J59BsBVshJTxk/EB+ddCrz/IVBeKYo7prSXHccUU9UZrw64YR01ra1FzTwUha+ejCKBlTm2/iWZ6ByLwEWy14sRvPMh3j73Qrxw1Z/RvTKKYQX9EIxE1dqKhOKxwYZmMBgaBGcKcq2vCqlMOpxujBwwDLlR4IOb/oFHfnsy1v7jEWDmAqlQSt5TBbq1eKmgXARf+cGqyVfDbU1+3d1JVQjEGBxs0uF7KW/enPwkBnfsjnhlSFf868W2ExEZbH2STdmy5Pe58PPi+bj48buB/t1ZkMDFR6QJ9koZ3MfQuNgVRxvdiCPxH8hA3rgL0H///bB4zUp4fQFJ/2rfQCHPUB88DhuAOue0wcxPP0PpV9+IlmGrYNo+1AvWW0MDYNSxG4gTJ6KVlWjr9ODAvAHAgqV44MIrMP36W4FpPwJlIYDjf0R8uWQnOwOr0BQwA7NVgYGTQMrD6jmp7/7fnzFp/GUIrFon190P2dE4YlVVqTF/tiHaDyM3GAw7BjpkFr7UeOxSDlVUIVPqXqN798V+nbrh3Qcfw4MnnoYfbr0biek/qTzrsHxIqgZvMBDaQziK8I+zsOiHWeiU2UbKGSf4FJz60N2S2q+rYigRhyvgwfdFhTjl6kvgOmAfwO8GvF61jW4JNDQZtfQBJ3ImOWbQI6KvdQ72u3YiSmKViLnZFS/pvwXUuGUJdjdyPBpF1zad8N0b7+p1Tq3GHlXBkFqFKfEbCrtJWauXSOMYHjVGSJQTx9Nl+bIxOm8Y5rzwHiafeDZ+veZvwA/zpHYvGTOmxx4STr9XCt1KHFIr/bcZXUuUa1QpKq/sDqYInD4LhX+6BY+feQHCIlL3LRgEnyNDXXdC9rLHHKTXRtS+BoNhh8HuYRWsvM9JJvQllaGglOkR9M3Pw55duuGXJ/+DR447HYXX/h34fLruZWABr3bTzoIN/BSVDMzw6bMPDbs7lm8vq8T0l15Fe38WIpGYKvjTy5XaKP9OMUgblP29zgTWBcvRap/h6Hj6aQC7Ivkz/9USgTXKBkOjkGrxtUilJccMuiXNB/XCiX+7Bj8umIMMv1f5D3tsIIdy1cbeXy/35kQw4UKX9p0x5+2PRJvMZkIr7O2MB9km7GjTDbMUU7GyEIbm9lAtbb+8/AbuH3MGFt77qFrkk2vzOSJxODlQk+M6djBKSEpQ44s4+DwohjNzlmpduO/k0zHjhdfU7MVeGa3VWonagPS1p2MyvMHQtHDEieRWRENhuMNhDBcfckjvfvjxhVfxwBln44vrbkLZu58CqzeqViD6EQ74VvVSceIMW/PkCEPzRaW1LdLmL8L0N99DXo+eupV5C76blX2niAruz6VFPD4fClcswe8nXAh0bKeWidEVC8MuB4Vehge5vz8MA/YfidWl67RAtGjIUC62+bGLuL24j+WffqGXwVMtyHpymhGC20i1gteqPOlKIpyMoyoSRX7PfOzbow8+n/wvPHDE8Sh78BmgaJU4coluK8faSnyHwOuggwiLQfxagnX3PI77jzxZtS6Mzu+H/F691exF/qwcCUsRwR6/aLcuMKQ7lPTvDQbDjoP5LD1wuTaHOPdQLInycAy9e/bEKKm8Lf/fB/jPeRPwybjLgdfeB1ZIIRCySn6+SCHgNkM5WgT03VKcq3HoZd//iMxIQrUMxezmnS2in2rhdLuwdM0qjDj4EPhGDAc8ckzaH4uGOg6V3lJlaFxS8S+FLnvs+CqSTYJk9pwsHDJ2DOauWwmH36uEPVv8GlI+q6k/kTAGdO2KT157DVi1gg5HjVXhYzONB9larOb12lBaMcQZt3zGaGUQI7rn4eBeffDqP+7DA8ecijVTXgKWrNZr9/FJHlw2Yhszmcq0sr9DCg0+1xSLl2PhE1PwwPGn4u37HlGtCiO69kSisgqRSARxZUxycawVqhYEXq2ys01gGWMwGBofO/8phy4Zj6sUqMXbpbKeKA9iYIdcHJLXH4nCYjx46VV48cLLsOy5l4Hi5eJHonCGZeeI5G5W7g27NzQKFhji73/54mvkt+2IeDiiK/dbIJ6IiY3FVcugw+NFUflGjDrtZCA7S8oEuzzTZYKNKQeaEDqCzSk6tgBSsI8eiYJDD8DKjevgZsWggQ1KqiVYyv0MTwBlq9Zizcxf6HREROhehU0VjWHzqD6ZtPW9bKzvVeQKnFRSFQ4hGI5icH4+9shpjVf/chMeO/h3wPNvAqv5MGhuT0VOmWb9Y9rUyNfMnDwfa3P6B/XC5mB2Na9YjdjUV/HcSefg41vvxR5dctG/T75qmayMSeYX1c+WBiY2Cxvuq42HSS+/WeezQzr1fW8wGHYMqScKSLD9iZ1Xk04XQvJaKgV/ZkYORhYMQquV6/HWX27Gk0echMjjLwBzl4gglAzKfCr/6PC5PwP9Cn2H8i9peTjdb7HVQbU8bBZTTOx0RASqNGRxUFSMn7/4DF1aZUoZEG1YizCFhOCT17UVpcg/5GBg5F4iLlzyGx8fVz2b2Ma0BDYhVkGbin95z0kc9vfM23zMH9q2xj6nnIjlq1Yi0+MUMSi5tyHppNZHdquRYwF3Bpb9PFfPIZD/uqXZ0CjYC83yNRYMw881CHvnY3hOBzx65bV447KJKH/vY2BjmZ7Zy/561dcvCa6EWk1UV7Rs44hFJQElrK/AhtffwdRzx+Pxa25AXsKD0T3z4ZZzRcNB5ewpAjdXyTAYDLsuzMMxycNqPG9U/Eh5FdomXRjVIw9DM1vj+ZvvxIO/H4OiB6rHIjs5/oPjCMWXsBvRFoX10qBSxLCzcbikIKczl4J89YKFcMeSekUKNhI0cIwoC3yv24Nlq9Zg8G8OAtq1sn4x7PKoSp0g6ddq6CBRc17EkjFVL2hoqyArA2w76tKxE4qn/6AfeSk2oX5Sfw2NCh16XDIxn2GccDkwov8AeOcV49lxl2Dapf8HfPktUB5U/fVMcJGQ1p6ErXbKpcvvkorry4EPPsI3l1+JKRddiQ6lUexVMFBtWRasUpk93bdbFQqDwdCMYbsdl3XiWoRVEe1HBvctwJ6duuHTSY/joSPHYOnN9+sZgSII1bqhymfoFoPNtvRs0UHwWIadSYLdwkwnSdclv8yD15Upet+lyhW4tuzguatO9wQizgR67DkMchCtAFSXs2HXhgklgS24ubn4zQnHYfbiYjh9HtXYtCXYK0DfEXHEkRMIYPmPM4Ely3TWFhsyQrCRUM2totQZ+F59pxS5JEhlFTq5fDi4dz9s+P4nTDrjXHxz021IfPujfsJASMScZHgV2H0clGpgeQTJz7/D59dcjwfPvwwbvvsZhxQMQEbMgVhlRHf7ukQwNrR2YDAYmh2qdVACxxGGqirhCQWxV8/e2L9rb3zy6NOYNOYsfHvdzYh/OR0orQKfKa4Wued44jrLCyPymg0UfRvKsfSX2ejYsSPCHFYkZUpDunBZBnGh6HUbN2DY3nsBvXqIrpDjmeKiWaA0BNOLSDr22WcvbBABn7TWfWwQ1pA2r8cJT1Aqi4uXq+wv7sQIwcaCgoziTAk0ikErETlej448KunKmbztW3fE6ILBmP/fV/HICWOx+vaHgJkL9RqE7NCvDAPfz0TR9bfikT+Mw8pPpmOf/MHo2LoTqtgFJNA/MPBcBoNh94P5O73mb4s6LgUSjARRFY1gQF4eRnXNx7wX3sKjp5yLX666Hvjwc2D1WoBDSgTVsyBwTVMWCnYltU5YqTQ+ZZdAPQM/JmmxYh1KZvyMNq2yEXFq/98gv+90wen1YNn6Neg/fCiQ6U+V/rQtwy6OaAbmVZ1fJfTpg6g/oHREQ6juPtYT0XwOP8o5cVXgMY0QbGJsB84RPBwMHotEES8PYoTU6A/NH4gPH/k3Jp94Gubd8xBWTnkRc269Gw+ceg6mPfs8DuhZgD5tOiEhAjIajesnxaQlocnQBsNuTq1VC/RYYHkjtf1oOAJnMIRhuT1xYK++mPfWR3jw/Ivw+qVXYcObHwAr10jFMqJ6GZwx/dQjtxQwUk3VjimtyVAVODywWZpm14GNt6Wl8EuZwQ9b+yz4uKQ1JxC2791LCUMqQVNmNBPSm/PZhNehA3L79UMwGFZPlWkIPAS3TMTi8MCN1cvYIhiXSoYRgk2H7cAlcAFqLhWhRgOKw6W/ZQYtrapCn/zeGN6jB6Y99BTe/tNt+OHfr2BUj37o26sfKsMxRONqRaHq49EZSLD9ODN2XcFgMDRfHOLsGWzUE4GY/y1Ua4F4lAhiCCUj4isi6N61B0YWDIFr4Ur856Ir8cG5lwDPvwEULtG9DRyAnuCYYhYy9Cp2oP6TY6uuQzc/qe8MOw8t9iXN1hRLupWLeJd0YjmyNb7d5USCTxDJ7SLHsr5TaWvSd1eH6a9sgHCB6XbZ6DigACuXrURGUmTdFsSgPXxAaYR4HO3bt8XSpSWAVByJsYAmxo5wdhWzy1g1+Quiy1VCxyIhtQbh8NzuGJ3XF0O79kSyMiTfR7QxqK0NBoOhGmeSk0nE0YunZwVT+Qqp+cfLw+jg9OOQ/P7wl6zG41f9CfcfdSKW/vs5YOEyoCKiVi3gUwdUnVJVKOUNxyZHRVwuXSOFjKeG6DQ0PXwsHBtuEY+puSEs2FNliS0QtkBE0jjOMWVt28knk57NFqa334t2PbshHk/Ao4adbVkZ2GJQ+QoJTvWUM9k3zZaaPVxh3b5R1edNgaVqzXYEMKKqQ/X3TYTVcqef5qHfV1M9yYOOmE48JLX1smgIVYmw2t4eY2gfxw7aceufiP25dmg6eF9c81Be5JrtdEgFi/S4Ny2WhqZCtZwxiM1xbJVtp7Z9spOErfXp9sptVOeJ9dn2HcqG07ZrVGrl+5QfseAwk4S+mU3yu1qxoDICny+AEQMGY0THrnjv+n/g8YOPR/mkJ4Af5wLBODeUrSVwdQK+L1qCKfc/gQHdChCuDDexHzGko8oHsbPohqAU4j5JH6Y1TaFmS3F9uB1uhKMxdMjLA1q1opkYmhEpf0OY9FKsZndqK3W1KrhcMe0XGkhSxGMbvx8l8+YDZeUqy+825mDXggkzDZUyHX41zetW1RMGJKiavXVfzQPGsxa2jH9OWU+xFcZqMOxI7Nn7dKasNHrcPvj9GfB5A6qApW1yTTZVcZJttRVr6hNAzSpfctFgueBwpQiJUASjexdgZLtcvHHPZDxw4h8w+56HgO9/AVaWAsvXIf7pl/jfdX9HdtIFr9tbXQgZdgraBp1Ys3qDFPxe8NGCWwNtn/bKcYJyAPlGKjw1ykfDLo2qjVoOhy9MSycbiCgCJWwFzMt+lwfl6zdKBTAs+2t/t5uhMwhtncEWUtqR2e6dSzA0N4G1c2H81VUY2PaZajGxWkdSToYtFyLTa4vA9Lg3LQ2GxoaLr9I38ClNAa8PJYtKMHfufCwsLFaDrbP9PrjFsTo4bk7Zqg623afbaA3fwW1r2fYuCbsWrYWHee3lkRDCcn/9Cgqwb88CTH/wCTz2+9Px+TmX452xl+DR0y9ARvEydMnJRkQ9oUjtathZqFZr3dOlWqxtGmh/uvWYrcj6M6m26WZgvy2chDghhk2xewY2n4ZM9/S0Z/mceiKN+AXrXfPHFh4cy8IaP2tNTqfb6jI2ht5U0KDsNPB6vPD4fPB6dYuCHQyGpoazY/mw/VJHHN8uWYRhJx2NP9zwZ/xm/HmYH63AV4vmYm0yCk+rgBS2dIzWOJrd0F7Z4sneBvai8DnkfB75Xt164eBefeFevBJt1lfiwLx+6CD+0xGPSd3OZNqdjSrCrHVi9RJkuui3G4m2hF0+cn+2AFFUyhv1nfbahl0dnQ1tLbN9aWb32OmBxbuRBfDGKD4yPD6sXLYKRUXFKCurRJbPC6+y95pdxQ1+LItBUbtGYcM4Z83SZcWnM+GE3+2H3xlAceFizJ9XpNIiwO+kNstBz7YgNOWLobFIz9+0OQ6wL49FsaZ1JsZNfRJ97roBzotPR7vrL8aZb0zB0bfegIpuHTBt7i8IRoPI8vvgd4m9ipEqu5daN6dhpKNtmGJx169o2vl3k3wnccN1TatE8JWGw3B5PCL8HGrWcUS249AOPoPWsJNRzXe0sxgSiTDcqnuX8Lst2x93VyLSahWmGFTvREmqp5MYdmnsPKvMgIFpqSaa2qsHbD6P1vCH8p6+IMoDcYiB5PHdIofzJp1uDzZGY5i2dDEKfnso9jnzFGTvMQCfFc3BsnAFnFle9dxlNWNGYjO+lWMsDJvCR15xwL0y0kQcHo8UnDk+/LBsIaatWIzhp52I0667GqPP+gO+WVaMkqoKOLySDpYYNBgai/RFdun4fD4fCpctxanXXgXswwV1xRlkijfka14XdBt7Ck565EFcfP9diPbohE8XzcGctSuQzAiolkT6DJcuOmtVIncPkcRnGttjkokWjlyeZPe4v+YObZiVkU65HRBLRmpUStIbOOpDlZHcLBKWxNbDJKgq7PQ2NDMkDZORmKSpR1KSSzw1nLhkaQ4Nye3dQ/xfgMbR/L0YDZwz5lZtKANyO2PcS//GgAf+jp53XoORD96CC6Y8CtfwAZi+YK5knigCPg+c8bhqEU1VhKxxbYb6UeMArWDD5SnoXPggc46xKlw8H18s+gn7XDAG4998Bnl3XgvXhNPR7ZarMf7Vp+AcVoCV5WWyfS3DNfFvaERY2JVWhlAwfASwx2DAJ/ZmN6jQnlnIeuS73HZwnvh7HP6vB3Des4+g63GHYdqCX7F48SJkSwUmy+ORjavHWXF6iWbXt18732qBp9/XpHbLkr6nhs5KNTQuiYSIN45fzfSocozLBGkkbdTi0JuHwwB8Xjc2LF0KrFstx9JprefJm0aRXR0mN4OqmKmkd2L9irVwu/yIxiRDb6EMVWsWM9+L6GOLf3kkiLa5nYDsLNm3mbcIslvSnZRM4HBhZaQKR9x8HTB8ENDaB2TIrXVsBc8hB+Coe/6BC+68BWsyffh64XyEfV64fX7drRl3pLo1DVuGxkjx5xbf4fI64coOYNaKYtWCMmzMcbhyylMYeO3lwNACSQevbnEJSPwOH4ijr52I5WWlklxSi5Gv6i6QDIbtp/YwkHBUKoHZ2SL4pBLiFt+gbI8TmWQ7lzhH+Y4BfhF7XTrCd+iB2O+W63HZ049j0AlH4cNFczFj2WI4MgKq+5TdMe7qUzQL0itxhmYIu7Q8PrFZzvitTsyk3d27BXxSAXeHggBnizYz2zWkwbSrCmFjyVIEAplQ7btbyNtKRNp2IkIwkojD7RedxP2aU4tgkmN01OyYahxy9z54sLBkCfY7/QRgYC+Az2BWkUJnL284TbB9Drx/OBHHPfc0TrvrDny3eg1+LSxS49YCPp/uqmTLomzKGVk11r6zoPhpCd2ZNe6RtQfWFpRQ1ktreER4+10+NYaqeEkxvir8GQPHHIUJLz2DgXfcBOw3UkR4hhS2jEPGqcQhx7P4JfTvi8NPOhFzFy2CS4R4ilrpajBsL6orrRZRPmRTbFr+pAK3SxeNqnzlvrTfHKkt/2Y/DLr7b7js3RcxfMK5+G5xMeYvKFbLL+SI72B+Uet8JuNy6LocBG272r6Vj0m7tNqfGwteWp2Xl8KOk1owb5r8udNR48ESEjr1RsyZKTbjkvTk48H05JEtoUQAy7m4A4mSFfKN7C/7UkCYyUDNAKaxBOXXmGjrSlE8fQY6dGiHiPiXLQlBospxsQG32E7phjLk5fWR2oFPVSrqyPnNCz4vkw6sir2NFIGSV1KOVV6TLqk9eeVHq6bf+pQTcOUbL+HYqy9T49ZmlBTB2coPp9SWuNI2WwcTzDCM+DQHyIhuSGQ3d9LvkQWkchZ0OOIrnG4xmCwvflm+CJ8uno9Bxx+NK/7zFEbc9Cdg9N5AKxGAfkkEKUSTTo4vso6jxhrJB0mLQOvWqcHJTVEAGgw12bLLU/U/seGE2GvCJ76jtdj1sEEYfNUEXP7Kczji0vPxzeol+LJ4Aao8Tnik4uOmcGRhazA0Flzuo01bRP2ZiMekQGdvWANtjmIxHokh0+PBsqKF4IPqubAwNaDIC2srw64Me/NVjz7nNyxdgcplyxHwuBFz1JzEVhepSUICu4ajUqa3atOahqEbe6zfdn+UopYIFJ+O/l3R+oqzMf7DF3HQ5WPxZdGvWFA8HzkBv15mQjah+Em1ElrBZnesQNEUVLDuMyFOQok/+cP1hrIDHpQFS/HFgpkoOOkwXPTCExh419+BA/cF2OXGSGPLCuM5DbslQrW6SGhoN4bBsDPhgr2sBKln7jJTqG5jqeQM74eO116Miz57DUfdci3mSZ6YOW8uwuEgMuR3blbTPzBj6HyV7kNs7PxhMGwOVZFmY0enHBQcsBc2lJXDl3SLrdE+aWObh37XEY+iV5dO+OW7b4GN68S+xfbkny7xDLs0Il2U+6CziCcRn7cAGdEE7AlsW8Ju4KEP4mSRsDuBQK+uKWfVYiyAQiTpkljgeO+A3HaG1Kb69UD+FeNxxdR/Y+/TT1bj3OauXQ53jl8Nx1AtYcwttdgdWwbtAskeGM6/aj21DB9Wxarw8YI5cPTthSseewD73HI9HPvvo1oAk34PEh6JLLaI2CKwjjhT8Sgh2QyW2jAYaqAqkS4k3GK/nGjCca/5ucg96xRc+MpUnH3zDYj1zMXnRfOwJhpS42Y5o54+1g5G7Bm2Bym95K/4zlaZyB08AOs2rIWfPlcphC37VLYIxmJx5AQysHD2bMSLFgPRuOy+5dYkw84nwUc+sgilkotF8ctX36CdP0O957CULWHrGKUjxZZCHCvdvbN8ox1TsxWCetyahrUdVXMndYiQGth9vMq5SwgEgL2Ho8+t12HC688h77iD8eWCmSiVmn5mwCOH0xGV7sjTxxQ1d1LxKM6E3eJKAEoNMyvDj6pwFb4r/AWuvt1xzhMP4LB/PQAcdRiQk6O64G0jopEpoZ32j/HFUKMlRLZxcMygwbCLYztOZddWqK4Uig3zrU8yQV5neM4Zg0OenIwzH58Ex4AemCZ5ZvHyEjWTnmMJmZ8oBjk5TXXlSUg951hg67vBsDmU7bB1wutCryEDEIxWwusRmxQhl142bQ6OM4zFHAg4fSia9iMQpt05ETNLqe3yONgazHTmE5JKSjDt/Y+Q3yUX8VBEPUd6i4gPcsk/f9KN0o2V6H/waBGCXdVwLdKyS2URj2r8YMAr4sYPjBiMUTf/GVc8/hACg/uoGn6l2wGXiCLW8NnPrpy33fLVjLHFrL0OIGcB8ztPZiY2Sp2B954s6IZLHvwnjrr/buQc9RugQ1vA70fSU3MMoMHQktCVG7F/zjT2i//IlNCpDVr97ggcdd9duHTyPzHw2CPx6aJ5+Gn5YjiyuEqB+BjxH2qlAhGU6VnHaTljg6E+4rG4rnyIs26V1wuugA/BWER3F6dNRqoP2h0r/ZFoHHm5PfHN/94EVq/nDCqzakYzQFVC2XobimLpt9PhEfHOIVtqToNVlm8J6hev+JpV61ejx/A9gVZZPLA6dovxQLWfx6cnMPD2rdnIzAsc4NOqFXD4ITjwkYdwjgjC5aKQfpovokgim88oJTyKLYJ0oaDfNyeY+LwnOgeOi8z26vGR0xfMRrRnB4x97F4c+q8HgWN+C3Rsp7t+2a0r96oKspTt2c861NTVErg7dqUbWha2Xevcr20+3e7F2iWPiKF3ag/8/gg103jCK09j0B+OwleLZmNO0QL4PV4V1NJLrFjWyicGQ32oygLtTeyGLTn7HnkE5q9YhoRTKuUNtB8KhqgYHVuqy+fMQ+STz9V4M2OAuz7szlUtgsvX4JMnp6B3j94oE1Gvng6ifNLmUZNfZTuXK4FQIogeewxUrcv0WRx/ulsIQdXba73fEvXZPEURZxjD7ZEIktp7m0xk/fYwjH3mCZxz2w0ockbx3dJi9aQBj8+vnHhzHvvD2gGFH2uWbPX8srgQ09Yvx9m33YjfT74XOcccDnRoAwT8SHIBaDUGUIKwNcP8jAg07O4on8LAsbIMkmfUTON99sCIm/6MK557Ss00/mrZIswoKUZECmIn1zFloS61fC5wbzBsDtWDQ9FH3yvl04DR+2F1JAp3ICBlUAOKcfZm8RjsHg6FMaxbL7zz1DPA2vVwcGLgVvh0Q9NCjeFiQRqJI/zBFyifV4xM8R8xcTr6MXNbhiuhJFxcSDqEDt27I6MgX/sqcV6cGNdshCCNvS6D1064AYpY7av3rykG7e91UL+p8YPymRNLuneC94wT8YdXp+Dw6ydieskizF9QhAynD5kuEYTMYBK49qA+h6b6HDWfRUrxaAebmtezbcgVqFAbXh8DW/70eEB2BUit0OtX1zBrfiHmBctw1J034pIv34af6zF2bK3HDnB77iLxwbWGlFhWzsTqIlfYzzrU8Pv0+6m+102vTcO4MV7IsGtTbde0Y23zm9g984f1T33BAdmZmcCovdDxmgmY8N4rOPCKizFjzUr8tGA+YuIXuBahmzlX3qvjS2ZhD4U9djd1HjukMPmmJWH34KguQvHHrj33QIWIwEhC2wfHf9n2qOyQ9qhNSMHWa3UMSKVDyoMcXwCr5hah9L1PgKqYfMeJkXTU2q74Vn00NAmp+LYSLvWP6S3ppZaMWbYGU+97HCO65sMRjKSlj073dE1hk/rOJbbj9WDOsmU4/OSTgPYdVVLzdNw73bMYLOxMpNYgtMcAdW+HXheMxcT/vYCjLx+PL5cVYYbU8N3ZWXDT4UtGSp/KbSdSXYmTDs+zI0gZUi24ZlC1MSXhC2Qg6vHiq8UL8HPlRpx+458x7pXn0FXELnp0lnsV9ev36Hu34sFgMGwdKu9IZVKvYeqVfCVhUD76iO+4/K1XccYtf8ViZ0zyYSHWS92eM41Z90zG5b2Iwngipgr0+uWecd0tinRHzKTP747fjD0V84oXquEGDaPakqLhCPbIK8C/b7oVWFgMxPRvqqwwNDmblLVscGGwym2K9bnPv4r4uo3IdHnhkPSyPYC9X129b/yOGoS9DhzTvMHrRKsD9ocaBpeW1sabNIDUgsgSiRiah7ZXXYBL3n0O/c85EV8VzkJJSTGyRTw52FjLRLNqZpsTgTu8y5StogxybtUyyGvgezkPz0XjCXgDmDV/IWauW4Wjb/sLzvvwJXgvOEXNfIRXNuJly4tq0bCoT2AaDIaGoRw1u3DofPm4xbyOCJw1Bn94ZQqOv+dmhPt0w7fzZqG0YiNaB/zIcHr0GEKrMqZIy9+2f2GGZUtieo+DYfckYRUmyh5oR1lu7HH84aiMh+CVz/WWNSlb0di+nN2KHjGbDsEIFj41BQjH5Evx/OwmTutuNP6/iWDCMkhks92WfynUVA9cVNLm8+/x8b2TMbQgX6V5bf2Q8hN1koBPfl+weBGGnXi0aJg+yoaSPJdK32bUNbyzcbjcqo89ySUjsj3AsAHY5/prcMXUZyRyj8EnRXOxKhaCOydDNcNq56wddEJNSmlcbEdgGwQFKWcUuTw+Na5x+vLF+GJpEU65/mpc8sZL6Dp2DNBbBGCGCwkKXI4X4L4STK3QYNix0J8rbyseOck1TDPlQ4+O6DTmeBzz0D245JFJyBrWH58snI+ZK5ci4fcpIchhHM70NkFbEBpaHKnCn+UJJyYNLMC+vz8Cc5YtVosE16wkWKRshd/X/C0cDmOP/AJ88OxzWPfyW6rVic/eVy1QhialtrBTkiEmojwSB5aswmMTJmJEt96IV1WpiSNMVYZ0AViXGOR3PLZPKpilkSD2O/lYqYz6RKNYG1i+pZbVGOojNT5DR7+OuQw3sN9w9P3H33Du0w/DNXyA1Ox/RiTOpwy4lRO3RaAaoye7qQRXM3h0ImlFrj5uE2o8CIMcmOMU1VgQucYsjwcBtxeFRQvx/eIi7HPF+bjkw5fgH386UJDLJ5DLieUC5FrYJUXjYrCPZ8NrrMvADAZDw2EtnwVset5SGZ8VsA4dgKN/i9EPT8LZUx5Bn9OOwfdFC1BcvBitpOKZJVlV+Y60felPahzL0DIQZ6wKdwo+rx97nX06iuOVcGVlWhvQrW/ZYbMcYiiPxDCi3yA8d82NwGfTAPmsZqRYpsXxqgmOKzQ0KszfdnuRSl+OCWRYtQEf33Q72jo88Lo88pX8WFvsC7V1RLpvcHp9+GnhAux39O/gHb6HLvtVAtvjkneTWcNNQXVE6+4aVfnyyJ+ARGq2FxlHHIQj774dlzx6P6o6tVHr8FWJE/dk+JVIU/tbGTQuCawSYAfAY3KNKIpOFjQ+X0C1AH5XsghfLV+IIy8+D5f/byoGThwvNcje7CNGku3EaoxAzeSvt3vBYDDseJj/OCmLfoSVyrY5yDrsAIy66S+4bOpT2Ou04/Hxorn4dkkRElKjZ95mPnfF42mikHm4Zj427J6k/LMUHuoBCvThewzBYeeciZmFs+HlU2/qay2u1VrIRgOWHLSjeDiCEbk98PC4icAvC4GQnIjrFqoGC6eUManmI0Mjoh9rmZQkTMDJMZvBMBb962ks/OgL5HXurFpwSUros9GnnjJbrUggKN3h92EVTUUqDfBRj0iFtJb+qLYMw2bRPfcSe1pC65Y9fq8/WjX7VlKzPxJH/ftRnHL3HVgoivvHOXMQ8Ima93pTKr0hNbatgQ4i4PSIHvWicEERZogI3O+qcbjonano8KcJwLB8MQC5Pjkvr4EZm68McbknBtvJKMOx3pPanw0Gw9ZTw39IsF6swEwmG/ERmFyqKcsPjB6BPnfegAlvvoj9/+9yEYOLMGdBoRo/mCOOXRXj4uztlh3D7k3KP1tBNehQoGX4MPT0kxFyiyhwxsWnp7XepQk/29ZsQUiTs3/luEC3y4M+bTrh4ePPB2Ys5iBCCWqBEr2RoVFRY0CZn1VLoKRheQWKH3wY7z7yL+zVpy+C5eWyTUKSXX4TAcjhIimbSFiNU3YaW/D3LK8fP82fj8MuHw+MHCr+heU/d2Tq65VYGKotxbCV1BSDcak9xaR2H+cijV06osOpJ+Lc//wb59x6I75ZsRjTixcgmRmA2+NRtXrl+62E3Bb4aCEex8N1D8UZ/LSqBJ+LADxk3Fm47MX/oP8V44DBfdUs4ASXwWEhI0HV7swYEINhl8AWcqo3TvlncckeNxJs3WGf8IjB6HvJhZj4+os45upL8bXkc675WeGSHaSCyVYbNUHN0PKgT+eKFX164eJbbsTXRXPhz8pS9mA/M74+9GMNGTSRSBRtfJkY3Ko9Hj7lDGDWPN1NHGUzgZzH0KioSV/xOJwRycuVURQ//CTemPQI9i0YgGhpuSQ1y24dNNVpR2w9kdIUFJOiBMsRhb9HRww6Y4zuvVTrAW+ankYINpRaMa0EfFqNi5/Vs3olntU27H7tqZ9DOuGDV/Gbqy/GtJIFmLeoEAGvBxlur9qfTfRqlq8kDgUlm+rTVX0KbiffM1AE+mV7tgAWFy/EtIVz0XPMcbjo9f+gy3VXSOHRTy9ZQUfh4OxDj+wntQbZ2T6Gjb4P64NQ+/fanw0GwzaQ7j8sH0JS+c/63m6pV11/zHjsOmZr/pA8tL7yfFz46Ws49p83YXWmEzMW/oporBJZGV61OLw6lioo0sb+qGNWtxLZ50udlz4szY8Zdm3YeqwCmwSZxgwiBl3HH4U9Tj8NvywoQrYnQxXsdrqrXiCxCQYpPFRIujh+Xf2scItAiERD8Gc4kdcqC0+ddg7w1XQRglE5gOyTqmzIvjyesp20AwjquxaKXaGrTer7OgpSnS7yT+KXZTpFN5avx6yb7sF79z+J0flDECwPSvZ0KQGo8qsF5x6kzmcNB1DrBVNQ8njJKDw5PkxbNg9jb/o/oFM75Q9kKzlv9XXYl2U8QCOg/CqnZ1MMcoZx/97Iu/h8TPzfVBxy4Vj1DNKfly+GKyugHD3XDXPGk2AlP7WQrP0qia9CIqoXnpVjc2byrJVL8YkcZ9AJR+Gy5/6N/W++XrUecAwg/LKlR84vG9eyPYPB0AxQgpB5l0+TYF72S77Olhp9QXd0POUEnPb04xj/j5tR3rktPimajZLKDXBkW/6E/1g2SMHAhh97vJBh94I2IuW6KmuQk4n9LrkQkbY52JiMICmmwkoAachQJD55wu12iO6LoI3fi/45bTHp9PNR+faHQGVYrVvniMWRZKuVZU+1j2rKms3AtKillJ2MQQpAjgdkS+D8Ynx0zfX4esqLGJnfH7GyKlXB4yTO+rDjnHpBp7MWiP7sbHwz+1eM+eMVwAH7qnHIehk8vX1tjIdoJJTaT2VASciACMKh/dD1+qtx2StTMPDU3+LLBT9j1ZqV6ikf2W4ffJIcFH20FzvxORbIx9Y/j0u2c2LpshJ8VTgbvU89Fhe//AwG3PM3YP/hupBgFzCXFUhL7FSNxGAwNDtUYc9X8SW6Ji/B5wO6d4brDyfj6ClPYNzTj6H1qCH4pnAWFi9fqlYL8Lt8cCekqJH92LlnFwC2PzB+YfdAi0Epxtn617MLxj10J75aMQ/uTDfcyZhuIUqVQ5tiNzSQOGsNUtZQlzidbozqNxBPXXwVlt4zGVi5To0bdKpCxkZ2pGHVpy5aEOnxWD+qdqaC0oQUgWxpDUrEvvERHjn8eGz4fhb2yrfGBEq02jqgvvxqa0v2JKrtJS08gRzMXLgUo44/Cd3PPAPI1BXEzWGEYCOjMqpqHZQaPQOf3LHvnhhx458xccrj6HLQvvh48Xx8s2QBiso3oEJShDMEHT6/et3oSmJh5Ub5vVDNIOx/zBG44pl/YfRNf4ZjPxGAOQHZTo6ruoH1+ezCw2Aw7B4oRy1OXtXqWe67pOKX4VVdPv7fHIjf3HUrrnhyMvKPOgRfLCvCzytKgKwMeKSSyfFitRojDLsRqpuYY8XZCLDPEEx86B71oANnqwwk3CIQ0ieQ1EOqwmG9ctJCvDyIA3r3xQeT/4VXLrkKmPajiJaoBBEzFI3c1BjWZqkWiBSAOrocTA7GX1jCohX4+e4HMHn8FRiZ2xN5bdojUlGhWvFt4deQFl3C1Um8/gCWbdiIRLdcDL/2/4DWOaINXKp3cHMYIdiI1M5cuuIkUS4Jw6Z8iAjce9ItuOj1Z3DwjVejzeH7obRNNn4oKcGPxYvV69q2Wcg5dBQOuvkvGP/68xh8zy3AIaNk/ww5lBxHjsnOIFUxk3/K0PTpFA2rqRgMhl2ZpC5HUjiYqZVfkcDlZ9q2Bo44GCPuuwUT/vcUhp19Ar5cNBuzFy5EhtuvnizkTjuIWnfUjA3cfeD4L3YRZwTgPfIwnPinq/DF/F/hywpIeUDlodOerYPpDQUUGwy22GBZwvKDPVGJaBKVwTAG9cxHZtFSTDr5TKy8+xFA3quJJHZ5I6dtqFhpKTA+GM98VXFkvcobqmxgYynwxrt45vix+H7yFIzqPwRREYfhWFhEG1vxuVP1vIC6SE9H5mcuL1VWWoUNsvc5T90H9BCfIBJBT1zYPMYT7AyozrncDGf9tc+Be+Rw5F9wJg65/Sac+NgDuOy1FzBBwmWvTMVpjz+Ew+/4G/qcfQbc+wwXhS8CMOBFkrPFlMrXSaiMrdouDAbDbgTLgrrKAy74mxRXop5pzNBK/MOIIRh63VW48sVncewfL8E0rlpQsghRf0CvayoH4ooD6ulHXIqCIsLQrFGigONJ2cgQ8KH7uWMx5i9/xOfzfoGvXSuV5hSB7ELcvGjTgpFLyjhdHFogxwxG0NHlw8F5/fD2A4/i2bEXYO0rbwHLVwHBEKcc69nF3DU1qaRlwxZVjqVkPCIWBcJWKA8D387Ed3+9HQ9e+kf09WZhr+55CJdVqrShoK9P+NUmNfZXKnRs+V9dVYH5wQ045+nHgL69xA4k7dwS0gRjfRgh2ETwiR86k+mgM66kuM6hWhi2ylSPneLzjLFnHx34OVucO508jYS7W9RbU0j73ghEg6H5Y88WdUjmZn5mHqcItNcBU3mcBTz9CluGsnzAyCFofcV5GP/Ri/jtX67Cd6uWYUbhbCmkIsj0s5CPKEEYl3+G5o1YhRQrFHmS/ixPsgLoesHZSgx+/OtMuDIylI2kLzWkbUgHpeLSAlsJbThDVa1qEgxiaJ9+6J5w44WJf8Krp52HxAuvAktXWi2EvAr5V0toKtvczbFbVu14Uy2CIgIdFGtsea8UwfzNdBT++WZMPn4sCl/+EPvlD5PyPKmeHZy0u+3kAGyNVaj8reMvlU4WFPV8MAV34+Pj1paWYpXk44tenwLs0Vt8gLWhoJcK2jxGCDYxdmIqQ5EP7M7lQHAO5tQ1e/kxIO/91qtHvmPXDw2KawBSDIqzFxNRB0s3DlL7s8Fg2P2xa/3M/2o8EFsj+AxxriLQtwe6nncGJr79Ki6461ZsbJ+FLxbNx0ZulpmhWi7YOpjedWxoZjD9WY5Q6LmkXOB6cV4Pup59Fi648zZ8W7wQYZ8bHl9A9IW2la1BPcvY6UI8FERGPIkD8/qhQ2kQj1x9HaaefSFWv/wmULQcqOIYwggcUT63WEop1jF4aVt/ymYFBRln6rt4z1EJoTgcnASyqhTBT77AjJtuw32nnoPvn3sZh+T1x+DcHmoMJvOtyrMq/0qeFSHIx8htKb6ScQrvBDytMvDzkoXY0DaAc555VD09LCl1wKRH6wQGBysGW4DJa2gC9HgcHew1/VJIqquPTDBL6BH7lShjYY6ykCOkcpf6zQq1qe97g8HQ/NAtg9YH5Uus/E2/ofxDtY9RXYV85UQytfRMV7j+cBx+//TjOO3Bf6KiexdMK5yDFatXqKeVSPmhWgh5PK5vas82VQUKz6OObdgV0enDdLLLFkkrPqUm049WJ5+Ayx99ANNXLMOainL5KlMEmm55UkUIZ69aMI1VOrO8UmWWxm51Vo+kky04dtDj9GGf/sPQfmMMr11+HR478LdYf/eDwOfTgLVlel082pBVTqmWQrk2vvIrFaxrsAPFjform6rGjtqoG00LOwrreOq8acGG+U49x9/KE/b1ph4fy/0psGMSKoLArAWI//tFfH7+pXjy9Asx+/m3sX+foSjo1QfloTDCiQhiTt36qo7HRh5BrUXMN1Z8a7iNHSRlpcLmkTydlRPAN3N/xKATD8fpLz6p1hqFCEAHJ5Kpo7DVXz5b17w5qlPaYDAYDLsdqoXQ40SCvQ2cady1E9ocfzSOf+R+XPr4Q+hx6AH4uGgufl61XIRDBlwejxRCUuhZBZGDS0+kiQJDM8HlQoJDjvhEiYP3x1Uv/RfR7h0xvWShWouWUOynP0vYFjhbgt3F7HGMlIfQBl4c2Ksv9unQBe9MmoxJZ5yLd666BkumvAT8MBtYV6VbCqticERkJz4yV7VKSuBrPULF7i3dFXCIAFZrc8aTukVVXil0neGYvreNco9zF2Hda+/gmxtux/3Hn4qnb7gNiblFOKRXPwzt3APJsiAS0YQS0gxJCkF1bPWyWVgZU8JdRLtT0jTs8+DjubNx0jVXYu8b/gR0aYukX+KxgWMCa2Nyt8FgMOzmsHBgy4Dq/WW5y3GEHVsDRx6EEZNuxQUvPIlepx6LaQvnY+GiItGLPvVcYzXBwGowqtlCYVGr5ciw62BPWFBryHGIwNB8HPPUg9jrorH4rvAXuMQGvG5J47p0gzVWkKhJRbWw7YlQ1JTHogiJQOqT3w+j+w1B4qf5eJfj4Y4+Fd9ddDUq7n8C+PgrYKFUNkQ8IionpZJUypNPwtHBliTqmuQ3PSZWzmMFnlEH+Y2Bu9d1/bWwt6sdUtT6gue340X9xLOqa5APEckQoQiwYg0wbQYw5RXMvepmPHrISXhp3B9R9MLr2Du3Nwb36YuM7GxURiKIxOKqhVG1rltCLf2U9vnY6sgg1ba0a2DLnhbrrTOzUbi4BF8tX4rLn3wcnSeMB9q1UhU9lb+tY28tJgcbDAZDS0FKHlWscwwRW4sy3ECbTPj231c9nejyl6fggHPOwKclhfh+RTEiXi98GQH19COOIdxEFLDwVgW4YVfDFgZKp3N4gE/SuksbDP2/SzHhofvw3coS/Lh0EVytMvTwc6Zvusi3SO8itUkXHTHZj2MIVSthNI5oWRU6u/wY3SMfB3bvjbIZP+OVu+7F5LPH4YkxYzHthluw7NnnEfz8G/U0DaypgKMiBkelhKqIBHkNJuDgOnsioNjdqp+fTKVkBXVq+Z2vEmxRVV+wt0sF3qZct0PEshrLyCenRBNwyTldPHfQupZKEXwVEtZWAotXANN/wppX3sT0m+/B8+ddigdOHYsnr7kOs197G6M798TBvfthSIeucAZDiFZVIS6Xz1PZrYCMS1tAp8Pv0+PZfk8h6JYD+H0ZKi9+smA29jzlePzfW/+D89ADAC9nBku6cq1AW2DWcfwtYYSgwWAwtCC4BqEqNKSE1LpOCg4pUJDlBfYahO5/uwqXvjMVIyeOw8xVy/HL3Ln66UYiJDiGKR17HKFh10ZpBIpBtg4GJJ2POxwTPn0Loy8+E58X/oSqaBCZAY4SFYMQYc+xbwyaumWCLTj4ygkOVJxKdMn2IqNQHomgMhxCZnY2BvTrj736DkKBNwsLX3wL7/75Jjw55hw8/JsTMW3cNSj+612IP/EC8M4nwPezgAXLgdUVgIhDRKJ6VrJSVTwBg7znTamgVJ2yZxV4uemv/J3XqoL1mceSt0qlKbEpb4JhYJ0IvkUrgZ/nAx9/DUz5H9bf/Sh+vPwGPHfMGXj492PwyiV/xJynXkT7dRHs02cIhg4Ygu49uyGUjKA0EkaViEtGh503KJC5NmBDBRr3Y+MjyXB7keEJYHZhEX5cuQpnPXIfBtx5A9C3m6hD2UgEoLolSwSS9PcNRQSxitmtRjWVrq/EF+P/D+U//Io2OdkSv5L823S0rYeR5Yw7kOnwqZpr//GnYuR1E/VzdhnpVneFHaGGnQ9rfctvnoxPH30Kffv0Ug8551gkTd3OZoch9sBHbmWJvcxYXoy+40/CyL9eJbVkL5J0kI0Ia5b4eiYe/cNZ2LNgIGKVwSbLJzbMB05x9D8tnIvxL/wH2HcoknzsIX8Tx7Ettch07PtJz28OjqOpDOGbG+5C0bNvYbjUmCsQRNQlNW77/pugNYm+oqIqBOfAfBzyxH1A+yzetPqt5fmHWvnNjgBJEJ0m8jtfWSwEpYBctArB9z/C0/feC1QF0atbV7TPboW4pKtaHsPqskpphh0ML88T8GP2vF9xynXXIDDhbCQztN0S+7y6C23HoExS7n/j+x/gxbPOxSG9+2FDyIGYg4MsNw+v15Xpxo/zfsRFU58B9h8t+YwCaydjpXMqm9P+2TVbXgV89z0+ePBRFH7zA/r3zEO2K4AERZHYgtJ3ErbNX2lb4/589BkrEd6Ei43R8HnYUumQMsCJ9WVlWLlxPSKJCIIS+XHxyQkRjANH7gVv+2wEOrZFh265SEplpX2n9ghkZ6l9ORnKnd1WDETi12fZMydHESX+5D1feRMqcDxfOcLBcvVs/1goiLXL16hnKFeWlmFVUQmSG4OYO/17xDeugzMcVNcbcHrQKiMHndq2kboSj5NEKOZAVMqUKNv5nAm9APdmBJgV/XXGo/2bGgMoccYlZfgYSbfPgzmFC1Am6XTceeeg6xljgIJc/XQytUh4dZlpH2NbMULQ0GQYIWiEoBGCO4u681lNIZWWLnxlWSM+VgmGFcuw4suv8f1Lr2DJtzMwoH0XdMpqixAHv8f0jEr7WDsSpo8RgttPtb+RC2ScMbBVjDN7eb+lpVj/yVf44KEnUT6nECN69IFXhFRVPKpa97Tw2DIqP4mvpaBJh9/zGih2knIsWmFc8mBSxJzTLd+65JVDFYSo2FNMfivdWC6XVaq2D8crxSQpu+Q6JIF4Owm4RVC2gS+rFZxep+hCl1pkmb6MgX6NQTUkxhKoqtiIWLRM3ofl/NQqsg8rMnHulwG324PsrGy0ayPHkzKBM3Pt7mgHbVwEI/cj7ERnXrLX4Ez5T0t31Ka+iSGMF/WL3BMno2TIcTxeL+YuW4KScBX2PPFoHHTWmcAeQ9RwDjW2l+M+5a0dp0TF+3ZQ91UbDLsb9O7Kw0vGszKRwWDQsLC1C04GtqYk3FKYsqUlQwrLvO7octoJOOahf2LCpLuQyO+OTxfNw5zVK4Asv1qygmLMDjsa1aDTVHnW8hO7LZI+Ko05roxPqOITrjq2Q9vjf4dTn3wEY/7yf/h27VJ8tXg+NojwcYrw5szx7UlbW7BQODEdY2JfapkTp0OEWhwxTqiQCnKYE0mCEXhDUXT2BzC0YzcM79IdB/XqL6EvDu1dgEN79cNhvfurMKpjdwzx5qCfCLk+8KF3woNecTe6RxzoGXOpz32SbgxwBbBPm044qEseDsvrq/blsQ7u2RcH9x6A/XrkYc9OXdErMxt+NRs4jBiXeQmGEI9GEY3GlGDjdTPo8X5sEa9llHXZzmbsyZUQAZhMwCviz5UdwOx1K/FJ0VzkHX4gJv77ERx0+03q+dHIkrgKSD7k+pByyuryi8fefnttsBBkQtZWszuXtEuvQ4Uzokxhv+tQ3fJXE7XulYSmYhMTVpl0+zNSS2dz+S1VgDOu7SA0XarXjX29TSYwdiqM7U1j3C7c2cWrunmdOjBuVCEnTl/FE9+zxaZzR+C43+E3TzyMC//7L/T+/QH4csHPKFpSgoDbr8YzORih4pPVGDO2uliZTvXiSKgee1Z9/uoCTQf1vVXIcpg9v1PPVxbSC1+nHIthe7Gf2FIDuXZ+x9Nu6QzWpVn3yxYxvlffyOv2X9/2wkvQgempL0yJQXax8vL4HdO3Rwe0Gn8GLvr4Nfz2jutR0TkLMxbMwvr1a5Hp88LvEcEi/9R+ElLrDortsGvU7t7UcCZw9bk1th1yGRU21dlDEgTGXVpMU2yFEEVlIo4N0TA2RhPYGHGqsCHsQGk4Lr9FEXHKkZx6tq0deIl8Wgff8zduE5LKTkU8gdJQUu2vjsVjxiIoj4XldzmWCF9WitTySXJedmdr0SyBx7XsWdugvj/7fWoilTq/xLOc12nbLA8h/xKyAwOPyV7mViIAAxKP8xcswDeF85B77OG48MWnsMekO4DD9+c0YdmR8cV9GN9WfrTYUeXn9h2BEWIH66umxu4CNjQPdpadMKPqkE7tz4amwHb8TRX71Am1tYLtTHeAhmgRML6SbMGRgkutRchnpB88CvvdfiOuFEE47ORj8fXyEkwvXqDWInT6PHC7XakChoVrQoWawxDqShu7WFJjEKVwdblcqJLCLqNnT/WTKph3MDxiegG7Q0kpnV0TlbYUFG4Jfkljpm9eN/Q4cwxOfOQBXPzPO9H5wJH4dPF8TF9SjJAIRrc/oNabVM+sFsGknk2shI59rzVztx0FKcFcC0dCi24b21vH5Np0YEuce9Mg9sCFmSkaGfS96GB/p20sobet8zjynTpO+pn1NaeHatSGm8W2UfsxcOqpPRSWkifcAR+c2ZlYHq5UT/j5bs0yHDrubFzx0n9x0M03wnPAKCDHr54fnqAIdLvV/TQmW76jXQ47kfR4FkZy9VM7DLsqddda7Eyn07Rx0TbC2qqq0el8usuQ7sDqCo2FcpLW+8ZE5dH0ShtrzQw7Ge0/rA+GerHXc9O2KOlor0/XqhWw/ygMuPtGXPTWFIy+9Dx8vWwh5hQvUoKPrUjs+uLYrZQdWy0rtj3we7tlI+UnnBznlZQCNIaqaBjhnNZA/0HyffX4QIVsw3aS7aYOh1C9lIoek6avc9Og0dumWqSIZePNrrLB66VYZwthl45wnPR7DJ90Oy59/XkcMHE85kbK8X3hbBQXLYBf7ruN34tMpxsepoQIIC0GmY4Ud1rMV+czO91rCr+UP0gLbFGzQ0Phue2wLXCGL4N9/aS2j6i+mvR7sPfT8Lkt6qkj8uqW7zMlLnP8LsQjEfy6sBDfFs2BZ4++OPb+W3HhJ68h94YrgZFDJT9lWqel/VstpNs2jWOrqL7ybUGuMZUhrK8aH16ybpI1NF9SznJnQCej7Gf7zN/QcGoXhrbfMDQPanQp2mnHpxhw8DqXI8l0A0P7o9/VF2Piq//F7yZOwNxwJb4qmo8qrwsO2cZ+prHqQrPy4CY2ICJBfZeII5GIIdAqGzNFcJxxzR+Bbrlqk/QWxR2FbjWyPlgCtdpmG+ontE9T96Xe6f02WXtxFyQ9f6r45wQ6ES+qhZDp2yYbGDEE/S69EBdOfQYXP3AP9jnzFHy7dhk+L5qHn1YuQYVbZE9WAN6AX0yDHaEOEfK6NUyLqdqrFFbHa22xtauQfk31XR+/51p/6etsOiTaXJl+OLL9WB6pxDclC/FJ8Tz1nO+jJW9cIXH423/egU6nHAvk9wAyPBLXIrwZ7xJ3Sog3IQ218E0zLd/Xobrt7XZ4kEtVQX3WgzX5PiERx7EG9viRpo5AQ8NQTeWSNmr1eCut9NpKemxSjbRujCC2o5ydnDMmn1jb0kima3g22G7q69ZiGbu5UOc9bUVQ50jPG9Z7JkWj3b1Vk9X3zII/rRhgYWsVuKSua95RgTSGeGjp2Las4piBpT4nlgzti45XXoCxr03B8bf+FbNjVZixYA6qgmXIFGHhlvyn7CEZl50lX7IL2Eof5lHau8sZR1brLEwvnI8hRx6BTiccDfjFXqSAVedNS2C2CTYGHKPI5eWkeJdzyjmsGaQM6XmT6GV0tD2rNfX4vhnZXKr4tO6JcVwjfZlmFClcgDxfBPkJR6Ln7dfhwk/ewClPPYChF/wBCx0hfD//F8xdOA+rV6+Fz+lFtteNTI8HfpdHP+XEOp5dllfjVHFI8chr4auOZy7Noq9jc9jjT+sLDcW+ZxsmpU5Ol7KDVEulvFfP4xb79YpRBkS85fh8qgU8Hg2iaHERZs6bhW8WzYF/jwL85uY/4/yXp+Do5/6FTleNB/bdE2jfWm5U4lO1lqfHja506aC/a2z02bcViWD2eXOsgNPjhpOPq5HgUokun3dk4KwlBvWZr+JAxDATrqQKkir6mmolpGHXQDkBSRvddSKmw7RUIlCLwU3Se0cHOR/PSZvRa1A1sb2kO0EKYOt6Ghpsm9+WYB9D3TNrm5x51gDnuqNwcPYpe/TYesR7oZ/gq7oud9r91ZFuOyCoGa1svUpPd8NWoVvw04R8LbRdS4GmZqGKfXGGY89cdDpzDC56cQrOu/3v8PTPxycL52JlPARPTgY8GX54pOxwe7zKD3AsoC/gVa1K6x1xfDz/V/Q/5nc4+KbrgNYZWmhSjAj8u6NT0hZDCrkeikBVQIsI4LXRhuxg5yk78P7Ve7Fx3pMSDZx4I87OFou7Ng1JX8nHzMsiyJNMX65nV9ALrY48FHv8+Qqc/9wTuOSZx3H8NRORe9B++Gb1EnxUNBdfFRfixxWLUS67OLO88Gb5VKuhx+1TQYs/ibFEVI035FACpoVHTqpaEXnyLZDeJVxXaAiqUpzQy4zx3B7xkRyawJa+ZDwmvkSuR3yX2yvX7hedkymiz+/DylgIM1YUK9v+dEkhNnZojdFnnY6L7r0NV778Hxz+zzvQ65wz4Bs9Uj0TWFWWJI9wDGBS2Y4uG3YmDV5HUKliIVVzYDZcX4mPzp+I5Z99i/bt20tkWWvqyDa1lfX2samB0nHwWvhMzNnrVmDQ+NOx/3VXp9YRlCvVGxp2CZQzDEax6OZ/4pPHnkWv3K4IVVQpO2FhvWPtZVNUQSM2G5CCatb6FRg87g844Po/Nt06gtN+xgOnnI5BPfMRrqhkfTKVlxob5l36UndmAHMWL8RlLz2n1hGMB0SQyTUw7u0WmR2FOh6fyRkM4+MbbsPC/76JATkdUCkigK35zJ/q9tNaCRtt4pfcJNcjaz1yDxz17GSgXRbr3Oonu5BuQFljENhCQ1KFlx1xtdWOas2R31gm0BZifDB/Ocq+no4vX3gJhR9/htYxyX7OTLTLbqPsZW3ZeoQTQWyQ9OosaXXEOWeh7WEHA1kiAplHuY6a2I16hq4lA3d0uqnbULeYxLr3P8LzZ16IA7rlYY3k4fhmCmy6LyWE5b1bhM7s4rm4XAQwRu8tZZKv0f3bjqI6P9j5suY9p5KZopB+g/bAeOHmfEIH7zMqH6KSuGvWorKkGKsXFGH17IWY9810lIr/8UQSCMCHgNOHjm3aIFsqBBkuEV08lfiAmByCC1BzGVIua63XG7Svp3HgZBWOcXTxVSqOLqmIMCRdYrdyr9GYB2VVYWwMBrG+YiOiCCIotpfIaIW++4xEu0H56Da4Hzr17gXkdgFyWumoE+EsR5dXvvC9iMA07Oi0I5Yvtk3Tb1cPK6jf9nYE2y4E+VpWhU9vuBOJpSsR8PlVBiVNVcCxa8EniVZSWYoOB4/E/pdcKM6CQpAX0LgRZ9g6lL2IA5j/0L8w+8PP0KltO/XgcRYATeUkeQ0eqdkvrtqADgfsjQMuG2/Zi2XcjYQjJE5x5q949KprUdCjt3KSvJamyie2EOS9FpYswvj77gL2GIi41Ep5DY0hBHlMdX/BCD6990GUz/gVXXzZkuTsEpTziUNUPiVNCDZWfDB9w+Ewkl3b49Cb/wK0NkJwW9miELQ+S66WP/Je0jdlX1yLV/I8NmwEZs1G8OfZWFy4FOtXrZOt42jToT169OmBrL6SR/YcCnRoA3ilBHXxXPq8CUsAVgvBHVtQqttQIYmVX3yN5y7/PxzYbwgqYxxQUn2O2j6L9xfXdw2XVLB+mPszrnpoEjBimHoiRnOhOhnrilc9QZPfpecXTupRXefqvSUQ+ZHSguKQii4oib96LbBiBbBqNYJLVmPxgmKsWboCc2f9hHiwVGwjKsenEHNJknuQldMa/oxMVYHPychIuxKpCKgo1S2HRKdHfTZQPfSA0O8kVJuV3p7ViohcZygUEnN1yOWtluNFRfhH5Lcoorw/dxby+w1Guy5dxEZ7yWtruHp0Bbr0ADp1ANpmiX+Va2BvC89lR5AtmO04YgUprUJhXX4q4vli78rr3OWEYG10xpbYZGsHawDq5uVQfN22Q24DViRJTUwvtihOg1Otq6PXsIug7Jz2EpIallrqXb6wW4Bsu2ksahyaH8RuaC8ej7YZZbqNZzOSyZQgUs/M5Mns/NF4p6xJ6v7lhBS9XrnvDJ84nNQPOxzlH3h/TOuw3DsfIG97ODuua5++seLDPo9H7C3Tp4RFY6a3oW6UtmDBxieVEDb9UBxaPUnKNplGbP1jmlEASqHZWA3F9aHLZLmAiNgtH7VmXd4WsQt43mhcbiwjAPi9kt2l8FditmWh41HiQqW7xCf9IAO/pw9k+rPlsLxMwkZUrFqFqg3lWLm4RPmMlcVLULF+A9wiIktmzoInEhcBKMIqERYTqhRzsSqbgn5l9YAKUcc1xRfTgpOO0icnsrWRs8+dDq+kiwcR2SenWxe07paLmNuB7n3y4G+Tg6x2bdC6U3v4cnIQ6NQFyJaKSYZftfBaxiyBx5Lz2ael3cob29U1F7ZPCNbGipdGc+ibQ85rnPuui3YKfGPZTVPbSZq56hqarqmR9PeNRUoYkZ1hp7VaPZvkfoX0OE75B9LEUcDKYe1rMux87DSx2VXSpvZ1bZO9pt1LcxMGTYWKZ9UoIEENIxA1RXHI5rCqoIhFEVwhEeSrS3UjAicYxeT7tUus9/K7XbHgcSjaLeGeSMaUcFSVC60NtR/kxJ6ctkCWCDuPlxcBtJX3OdnyXo6VzfGo8h3FO/ej0KPjYjOkvJDdrbFpm4VgXTATb5KBDIZa7Ew7sc+bfg0c0tAU18NztDQRkh6vO/Pe0+O+JabDroZtF7XTob7vm5p0u90WbJ9ibG3zMG50N78ECjvGO6OLQQlEvkrg7+xitlr5Ui0Ltnyx41ilmwg3fk61Pgh2RZjn4O/cjselyFMthBR7sj2341sFj8EXvloiUPZLJJumvGhKtlsIpkcIE9UYvqEh1LaTprKZnZWBlcMTZ7Mz84Z97qaIg/T75fIgnCFsw+92VjoY/7TrUdsedqZ92PAaaL/bCoVgOjv7fnY2deU5xm96JZyv9ufaNmC/t4+T2sY6rN3imn6e9P1t7O/Sz6uQA3DX1DJ0gv17PBYHF0SXL0QaVv++O7FDWwQNBoPBYDAYdii20ktv5Uuhmvb0223FOj6lXjpbmoykJrwJjTXRranYztgzGAwGg8Fg2HZsQbVZ0kUghZstDhsEBV3NVlpDNTusRbBBCdmINHdFvrvT0u3D3L/1Zidh/INhe9he+zX21zBqN/jpFrnq9ir9e3piJFPbqDSqLQ6tA+plWOQ4tVoWE/ax5DPTSK19mcI+NtNfX0PtdLTtormnr2kRNBgMBoPBsIuS3pJXU6jtaDY9YsuQSGaMoMFgMBgMBkMLxbQIGgwGg8FgMLRQjBA0GAwGg8FgaKEYIWgwGAwGg8HQQjFC0GAwGAwGg6GFYoSgwWAwGAwGQwvFCEGDwWAwGAyGFooRggaDwWAwGAwtFCMEDQaDwWAwGFooRggaDAaDwWAwtFCMEDQYDAaDwWBooRghaDAYDAaDwdBCMULQYDAYDAaDoYVihKDBYDAYDAZDC8UIQYPBYDAYDIYWihGCBoPBYDAYDC0UIwQNBoPBYDAYWihGCBoMBoPBYDC0UIwQNBgMBoPBYGihGCFoMBgMBoPB0EIxQtBgMBgMBoOhRQL8P0WM9b9wq+faAAAAAElFTkSuQmCC;" vertex="1" parent="1">
                    <mxGeometry x="490" y="190" width="112" height="27.21" as="geometry"/>
                </mxCell>
                <mxCell id="24" value="Caddy&#xa;Webserver" style="shape=image;verticalLabelPosition=bottom;labelBackgroundColor=default;verticalAlign=top;aspect=fixed;imageAspect=0;image=https://caddyserver.com/old/resources/images/caddy-lock.png;" vertex="1" parent="1">
                    <mxGeometry x="100" y="170" width="80.3" height="80.3" as="geometry"/>
                </mxCell>
            </root>
        </mxGraphModel>
    </diagram>
</mxfile>